<svg width="404" height="404" viewBox="0 0 404 404" fill="none" xmlns="http://www.w3.org/2000/svg">
<path d="M335.904 346.001H338.662L344.68 337.615V332.111C344.68 332.111 348.942 331.849 348.44 339.055C347.938 346.263 348.481 344.428 348.481 344.428C348.481 344.428 357.532 344.462 358.283 345.249C358.83 345.82 359.077 354.81 359.172 359.685C359.219 362.139 357.714 364.422 355.432 365.002C355.108 365.085 354.78 365.133 354.458 365.133C352.2 365.133 340.668 363.298 340.668 363.298H335.905V346.001H335.904Z" fill="#E0E0E0"/>
<path d="M328.011 344.496L329.707 363.356H334.429V344.876L328.011 344.496Z" fill="#E0E0E0"/>
<path d="M194.898 62.4131L206.777 79.3973C208.079 81.2581 210.848 81.212 212.087 79.3092L223.584 61.6455L194.898 62.4131Z" fill="#E0E0E0"/>
<path d="M225.019 71.811H191.68C186.52 71.811 182.336 67.628 182.336 62.4673V43.3193C182.336 38.1594 186.519 33.9756 191.68 33.9756H225.019C230.179 33.9756 234.363 38.1586 234.363 43.3193V62.4673C234.363 67.628 230.179 71.811 225.019 71.811Z" fill="#E0E0E0"/>
<path d="M218.537 49.4167C216.869 46.3689 214.104 45.8954 212.245 46.5895C210.224 47.3441 209.175 49.4167 209.175 49.4167C209.175 49.4167 208.127 47.3441 206.106 46.5895C204.247 45.8954 201.482 46.3689 199.814 49.4167C196.334 55.7772 209.175 64.0584 209.175 64.0584C209.175 64.0584 222.017 55.7772 218.537 49.4167Z" fill="white"/>
<path d="M64.483 327.171H91.8798C97.9721 327.171 102.911 332.109 102.911 338.202V352.108C102.911 358.201 97.9721 363.139 91.8798 363.139H84.7209L79.6766 370.351C78.4395 372.12 75.8063 372.076 74.6282 370.267L69.9887 363.139H64.483C58.3906 363.139 53.4521 358.201 53.4521 352.108V338.202C53.4521 332.109 58.3906 327.171 64.483 327.171Z" fill="#E0E0E0"/>
<path d="M77.2054 338.219V352.408L67.0488 345.314L77.2054 338.219Z" fill="white"/>
<path d="M90.7966 353.528C90.7966 353.528 90.1243 343.446 82.0597 343.297H76.9062V347.629L81.9845 347.703C81.9845 347.703 87.3012 347.579 90.7966 353.528Z" fill="white"/>
<path d="M80.9874 178.639C81.9125 174.735 79.4981 170.821 75.5947 169.896C71.6912 168.971 67.7769 171.385 66.8518 175.289C65.9267 179.192 68.3411 183.106 72.2446 184.032C76.148 184.957 80.0623 182.542 80.9874 178.639Z" fill="#E0E0E0"/>
<path d="M73.9294 183.35C67.0711 183.35 61.5112 188.909 61.5112 195.768H86.3483C86.3483 188.909 80.7885 183.35 73.9294 183.35Z" fill="#E0E0E0"/>
<path d="M277.35 40.4999C277.35 43.2899 275.088 45.5515 272.298 45.5515C269.508 45.5515 267.247 43.2899 267.247 40.4999C267.247 37.7098 269.508 35.4482 272.298 35.4482C275.088 35.4482 277.35 37.7098 277.35 40.4999Z" fill="#E0E0E0"/>
<path d="M291.362 52.3192C291.362 55.1092 289.1 57.3708 286.31 57.3708C283.52 57.3708 281.258 55.1092 281.258 52.3192C281.258 49.5292 283.52 47.2676 286.31 47.2676C289.1 47.2676 291.362 49.5292 291.362 52.3192Z" fill="#E0E0E0"/>
<path d="M277.428 64.3729C277.428 67.1629 275.167 69.4245 272.377 69.4245C269.587 69.4245 267.325 67.1629 267.325 64.3729C267.325 61.5829 269.587 59.3213 272.377 59.3213C275.167 59.3213 277.428 61.5837 277.428 64.3729Z" fill="#E0E0E0"/>
<path d="M272.299 40.5L286.31 52.3194L272.376 64.3732" stroke="#E0E0E0" stroke-width="0.808" stroke-miterlimit="10"/>
<path d="M364.488 158.973C362.307 154.987 358.691 154.367 356.259 155.275C353.617 156.263 352.245 158.973 352.245 158.973C352.245 158.973 350.873 156.263 348.231 155.275C345.8 154.367 342.184 154.987 340.003 158.973C335.451 167.291 352.245 178.122 352.245 178.122C352.245 178.122 369.04 167.291 364.488 158.973Z" fill="#E0E0E0"/>
<path d="M344.627 197.756C343.073 194.916 340.497 194.475 338.765 195.122C336.882 195.825 335.905 197.756 335.905 197.756C335.905 197.756 334.927 195.825 333.044 195.122C331.313 194.475 328.736 194.916 327.182 197.756C323.94 203.683 335.905 211.399 335.905 211.399C335.905 211.399 347.87 203.683 344.627 197.756Z" fill="#E0E0E0"/>
<path d="M357.741 60.0732H303.862C297.255 60.0732 291.9 65.4287 291.9 72.0349V104.693C291.9 111.299 297.255 116.654 303.862 116.654H320.514L329.85 130.003C331.126 131.828 333.843 131.782 335.058 129.917L343.689 116.655H357.741C364.348 116.655 369.703 111.3 369.703 104.693V72.0349C369.704 65.4287 364.348 60.0732 357.741 60.0732Z" fill="white"/>
<path d="M357.742 60.0748C357.742 60.0748 357.877 60.0708 358.145 60.0788C358.411 60.1031 358.815 60.0643 359.332 60.1596C360.368 60.2752 361.941 60.5927 363.708 61.6043C365.453 62.599 367.449 64.3152 368.683 66.9994C369.299 68.3269 369.716 69.875 369.786 71.5516C369.839 73.2218 369.808 74.9808 369.823 76.8432C369.836 84.2906 369.85 93.2788 369.868 103.496C369.887 104.764 369.857 106.099 369.559 107.399C369.282 108.705 368.744 109.971 368.017 111.131C366.564 113.447 364.265 115.355 361.506 116.236C360.136 116.693 358.656 116.851 357.198 116.842C355.743 116.843 354.273 116.845 352.787 116.846C349.815 116.848 346.781 116.85 343.69 116.852L343.854 116.763C342.243 119.241 340.595 121.775 338.914 124.363C338.072 125.656 337.223 126.962 336.366 128.28C335.926 128.941 335.532 129.597 335.05 130.27C334.537 130.943 333.744 131.391 332.902 131.515C332.06 131.63 331.166 131.432 330.471 130.919C330.115 130.679 329.828 130.331 329.592 129.997L328.895 129C327.964 127.669 327.025 126.328 326.08 124.978C324.191 122.278 322.276 119.541 320.342 116.776L320.514 116.866C317.62 116.866 314.526 116.866 311.406 116.867C309.133 116.867 306.875 116.867 304.63 116.867C303.515 116.891 302.356 116.81 301.251 116.579C300.141 116.337 299.082 115.921 298.08 115.407C296.109 114.318 294.442 112.717 293.338 110.79C292.212 108.88 291.678 106.657 291.693 104.49C291.697 95.9193 291.701 87.6518 291.705 79.7763C291.707 77.8072 291.709 75.8631 291.709 73.9441C291.716 72.9834 291.689 72.0381 291.76 71.0725C291.778 70.5917 291.89 70.1223 291.95 69.6504C292.064 69.1882 292.169 68.7228 292.316 68.2728C292.914 66.4742 293.92 64.8493 295.201 63.5339C296.485 62.2192 298.061 61.2448 299.728 60.6388C300.14 60.4707 300.569 60.3616 300.997 60.2574C301.419 60.1289 301.858 60.0885 302.288 60.0182C303.153 59.9051 304.023 59.9043 304.862 59.9084C306.552 59.9108 308.21 59.9124 309.835 59.9148C313.086 59.9197 316.205 59.9237 319.184 59.9286C331.088 59.9568 340.723 59.9795 347.395 59.9956C350.718 60.0126 353.3 60.0263 355.065 60.0352C355.934 60.0441 356.599 60.0514 357.06 60.0562C357.512 60.0603 357.742 60.0748 357.742 60.0748C357.742 60.0748 357.511 60.0893 357.062 60.0966C356.601 60.1015 355.936 60.1087 355.067 60.1176C353.302 60.1265 350.719 60.1403 347.397 60.1572C340.724 60.1734 331.09 60.196 319.185 60.2243C316.207 60.2283 313.087 60.2332 309.837 60.238C308.211 60.2404 306.553 60.2421 304.864 60.2445C304.015 60.2429 303.172 60.2461 302.333 60.3576C301.915 60.4279 301.489 60.4667 301.079 60.5927C300.664 60.6945 300.247 60.8012 299.848 60.966C298.231 61.5575 296.703 62.5069 295.458 63.7851C294.218 65.0642 293.245 66.6422 292.668 68.3859C292.527 68.8222 292.426 69.2731 292.316 69.7215C292.26 70.1797 292.15 70.6346 292.134 71.1008C292.067 72.0243 292.093 72.9858 292.089 73.9433C292.091 75.8623 292.092 77.8064 292.093 79.7755C292.097 87.651 292.101 95.9185 292.105 104.489C292.092 106.598 292.609 108.733 293.698 110.58C294.764 112.441 296.376 113.988 298.279 115.039C299.246 115.534 300.269 115.936 301.34 116.169C302.418 116.392 303.501 116.47 304.63 116.447C306.874 116.447 309.133 116.447 311.406 116.447C314.526 116.447 317.62 116.448 320.514 116.448H320.623L320.686 116.538C322.619 119.304 324.534 122.041 326.422 124.742C327.366 126.093 328.304 127.435 329.234 128.766L329.931 129.763C330.16 130.087 330.396 130.373 330.712 130.588C331.319 131.037 332.104 131.212 332.845 131.112C333.584 131.002 334.277 130.612 334.728 130.021C335.169 129.406 335.594 128.709 336.025 128.061C336.883 126.744 337.734 125.438 338.576 124.146C340.26 121.561 341.911 119.027 343.525 116.552L343.583 116.463H343.69C346.781 116.465 349.815 116.467 352.787 116.469C354.273 116.47 355.743 116.472 357.198 116.472C358.645 116.482 360.056 116.333 361.393 115.892C364.071 115.043 366.306 113.195 367.722 110.948C368.431 109.823 368.957 108.595 369.229 107.327C369.52 106.058 369.555 104.783 369.538 103.498C369.555 93.2812 369.571 84.293 369.584 76.8457C369.577 74.9873 369.616 73.2153 369.572 71.563C369.513 69.9154 369.113 68.3907 368.514 67.0802C367.316 64.4299 365.361 62.7202 363.644 61.7183C361.907 60.6994 360.351 60.3625 359.324 60.2275C358.81 60.1217 358.407 60.15 358.143 60.1144C357.878 60.0926 357.742 60.0748 357.742 60.0748Z" fill="#263238"/>
<path d="M332.338 77.4541V99.7751L348.315 88.615L332.338 77.4541Z" fill="#FF725E"/>
<path d="M310.957 101.538C310.957 101.538 312.015 85.6785 324.702 85.4434H332.808V92.2572L324.819 92.3744C324.819 92.3744 316.456 92.1797 310.957 101.538Z" fill="#FF725E"/>
<path d="M38.9751 138.745H150.135C156.385 138.745 161.451 133.679 161.451 127.429V41.4293C161.451 35.1794 156.385 30.1133 150.135 30.1133H38.9751C32.7252 30.1133 27.6582 35.1794 27.6582 41.4293V127.429C27.6582 133.679 32.7252 138.745 38.9751 138.745Z" fill="white"/>
<path d="M89.1793 135.419C87.8065 138.745 61.2686 163.685 61.2686 163.685V135.419H89.1793Z" fill="#455A64"/>
<path d="M121.635 77.786C121.703 72.1195 122.596 66.4724 122.378 60.8091C122.161 55.1466 120.67 49.2482 116.72 45.1864C112.769 41.1246 105.908 39.5741 101.286 42.8521L100.337 47.6743C102.157 69.5242 103.976 91.3733 105.796 113.222C106.035 116.092 106.297 119.046 107.602 121.613C108.907 124.18 111.526 126.299 114.401 126.122C118.162 125.891 120.631 122.078 121.8 118.495C126.04 105.51 121.471 91.4452 121.635 77.786Z" fill="#263238"/>
<path d="M108.008 48.4067C107.184 47.0064 106.337 45.5843 105.127 44.5016C103.916 43.4189 102.262 42.7087 100.666 43.0117C99.9147 43.1547 99.1511 43.5813 98.8982 44.3029C98.6461 45.0244 99.1851 45.9883 99.9478 45.9261L100.11 46.0651C101.807 47.5664 103.533 49.0329 105.288 50.4655C105.73 50.8258 106.188 51.1927 106.733 51.3599C107.279 51.5272 107.938 51.4496 108.317 51.023C108.942 50.3176 108.485 49.2195 108.008 48.4067Z" fill="#FF725E"/>
<path d="M111.209 53.9686C105.562 47.0667 97.9779 43.093 89.0616 42.9451C84.031 42.8619 81.9488 43.9074 78.3265 44.8851C74.7034 45.8628 71.4351 47.806 69.2737 50.874C66.7067 54.5173 64.5501 58.5977 64.0653 63.0279C63.5668 67.5786 63.0674 72.1608 63.4108 76.726C63.7542 81.2912 64.9937 85.8887 67.6819 89.595L79.2977 91.6134C85.7132 91.8323 92.2168 92.0424 98.4667 90.5791C104.717 89.1158 110.79 85.7529 114.136 80.2755C118.787 72.6649 116.856 60.8714 111.209 53.9686Z" fill="#263238"/>
<path d="M79.2521 112.233C79.3297 108.156 79.467 103.047 79.467 103.065C79.467 103.065 69.9948 102.022 67.3785 89.8818C66.0768 83.8444 65.8353 73.8422 65.9015 65.6515C65.9613 58.2785 72.2395 48.2399 81.3424 48.2076L85.388 47.7373L100.874 53.8926C103.111 54.0058 104.889 55.8116 104.968 58.0506L105.552 111.434L95.6294 128.007L77.8753 114.253L79.2521 112.233Z" fill="#B56760"/>
<path d="M85.5872 87.042C85.5031 86.4021 85.1476 85.8365 84.6935 85.4478C83.7861 84.6706 82.4602 84.5954 81.4898 85.2652C80.5186 85.9351 79.9627 87.3095 80.1461 88.5861C80.6907 89.3351 81.5245 89.8409 82.4473 89.9209C82.5911 89.9339 82.7349 89.9387 82.8796 89.9347C83.5793 89.9169 84.2911 89.6802 84.826 89.1638C85.3601 88.6483 85.6914 87.8314 85.5872 87.042Z" fill="#8A4A43"/>
<path d="M70.7932 75.1274C70.8094 75.9588 71.5269 76.6303 72.3947 76.6286C73.2609 76.6278 73.9517 75.9548 73.9364 75.1241C73.9202 74.2935 73.2027 73.6205 72.3365 73.6221C71.4679 73.6229 70.7771 74.2968 70.7932 75.1274Z" fill="#263238"/>
<path d="M68.6753 69.7463C68.8814 69.9402 70.0231 68.9949 71.7134 68.906C73.4005 68.7937 74.6885 69.5952 74.8606 69.3778C74.9454 69.2817 74.7265 68.9229 74.1657 68.5585C73.6122 68.1966 72.6846 67.8653 71.6318 67.9275C70.5798 67.9913 69.7152 68.4276 69.228 68.8518C68.7303 69.2801 68.5752 69.6598 68.6753 69.7463Z" fill="#263238"/>
<path d="M79.5367 83.0015C79.5391 82.9053 78.479 82.7817 76.7645 82.6573C76.3306 82.6363 75.9177 82.5732 75.828 82.2824C75.7092 81.9761 75.8644 81.501 76.0462 80.9871C76.3944 79.9206 76.7596 78.8023 77.1418 77.6307C78.6568 72.8546 79.729 68.9366 79.5367 68.8776C79.3436 68.8179 77.9587 72.6413 76.4429 77.4174C76.0801 78.5947 75.7318 79.717 75.4022 80.79C75.2656 81.2893 75.0152 81.8614 75.2713 82.4965C75.4054 82.8124 75.7351 83.029 76.0155 83.0887C76.2966 83.1582 76.5398 83.1494 76.754 83.1502C78.4726 83.1485 79.5359 83.0976 79.5367 83.0015Z" fill="#263238"/>
<path d="M79.4699 103.07C79.4699 103.07 87.7374 103.15 95.6307 97.7949C95.6307 97.7949 91.7273 106.524 79.4077 106.05L79.4699 103.07Z" fill="#8A4A43"/>
<path d="M84.5758 83.897C84.3003 83.8962 84.3972 85.7304 82.8984 87.1193C81.4036 88.5115 79.4361 88.4129 79.4361 88.6699C79.4167 88.7862 79.891 89.0028 80.7176 88.9793C81.5288 88.9624 82.6972 88.6375 83.6135 87.7883C84.5281 86.9375 84.8812 85.8491 84.9022 85.0928C84.9305 84.3228 84.701 83.8792 84.5758 83.897Z" fill="#263238"/>
<path d="M69.2514 63.828C69.5584 64.2247 70.8375 63.8781 72.3557 63.9209C73.8756 63.9152 75.1498 64.2926 75.4617 63.9031C75.5999 63.7132 75.4124 63.3206 74.8654 62.9335C74.3265 62.5489 73.4126 62.2152 72.3679 62.2015C71.3239 62.1902 70.4052 62.5004 69.8614 62.8729C69.3088 63.2462 69.1165 63.6349 69.2514 63.828Z" fill="#263238"/>
<path d="M90.016 74.6966C90.0596 75.5272 89.393 76.248 88.5268 76.3094C87.6631 76.3708 86.9246 75.7502 86.8809 74.9196C86.8373 74.0898 87.5039 73.3674 88.3677 73.306C89.2338 73.2438 89.9723 73.8668 90.016 74.6966Z" fill="#263238"/>
<path d="M91.5469 69.0863C91.3554 69.2948 90.1491 68.4342 88.4563 68.4674C86.7652 68.4771 85.5386 69.3699 85.3512 69.1655C85.2591 69.075 85.4522 68.7017 85.9855 68.2985C86.5115 67.8977 87.4124 67.5002 88.4668 67.4856C89.5213 67.4735 90.4149 67.846 90.9312 68.2338C91.458 68.6249 91.6415 68.9926 91.5469 69.0863Z" fill="#263238"/>
<path d="M90.5315 63.6775C90.2051 64.0669 88.8921 63.692 87.3222 63.7001C85.7522 63.6597 84.4271 64.0088 84.1144 63.612C83.9762 63.4189 84.1799 63.0303 84.7543 62.6562C85.3208 62.2837 86.2726 61.971 87.3521 61.9807C88.4316 61.9928 89.3721 62.3241 89.9247 62.7087C90.4863 63.0941 90.6754 63.4876 90.5315 63.6775Z" fill="#263238"/>
<path d="M102.859 78.6298C102.811 77.7176 103.747 75.5093 104.64 75.3194C107.024 74.8128 111.371 74.7676 111.746 80.8736C112.259 89.2203 103.774 88.0139 103.744 87.7756C103.721 87.5897 103.025 81.7794 102.859 78.6298Z" fill="#B56760"/>
<path d="M105.864 84.5871C105.899 84.558 106.016 84.68 106.268 84.7777C106.515 84.8723 106.932 84.9232 107.357 84.7333C108.219 84.3552 108.875 82.9096 108.822 81.4027C108.797 80.6416 108.594 79.9281 108.287 79.3456C107.995 78.7509 107.574 78.3485 107.125 78.2976C106.677 78.2224 106.379 78.5077 106.291 78.7484C106.193 78.9892 106.257 79.1524 106.213 79.1694C106.191 79.192 106.026 79.0409 106.072 78.6927C106.096 78.5246 106.182 78.321 106.368 78.1489C106.558 77.9744 106.848 77.8726 107.159 77.8871C107.806 77.8928 108.422 78.4487 108.758 79.0878C109.129 79.7277 109.376 80.5285 109.405 81.3833C109.455 83.0688 108.691 84.6953 107.505 85.1187C106.928 85.3078 106.427 85.1607 106.162 84.9797C105.892 84.7882 105.837 84.6032 105.864 84.5871Z" fill="#8A4A43"/>
<path d="M104.985 75.345L102.864 77.5444C93.7057 68.7784 75.8085 46.8307 76.8072 48.138C76.8072 48.138 83.0813 45.5581 89.8903 46.7176C96.7002 47.8779 109.616 51.286 109.418 59.3175C109.22 67.3498 104.985 75.345 104.985 75.345Z" fill="#263238"/>
<path d="M117.113 73.5009C117.127 73.496 117.083 73.3312 116.986 73.0177C116.885 72.7058 116.707 72.2541 116.416 71.7015C115.836 70.6026 114.726 69.1151 112.928 67.7762C111.157 66.401 108.701 65.2787 105.905 64.398C103.113 63.4881 99.9652 62.7828 96.8762 61.456C93.7662 60.1794 90.9939 58.5327 88.6297 56.8375C86.2728 55.1245 84.3271 53.3477 82.8097 51.7495C81.2915 50.1497 80.1877 48.7405 79.4436 47.7556C79.1018 47.2861 78.8246 46.9047 78.6065 46.605C78.4126 46.3432 78.3051 46.2091 78.2922 46.2171C78.2801 46.2252 78.3633 46.3747 78.5346 46.6527C78.7091 46.9282 78.9555 47.3427 79.3086 47.8525C80.014 48.8722 81.0879 50.3177 82.5891 51.9564C84.0896 53.5926 86.0312 55.4098 88.3986 57.1567C90.7725 58.8858 93.569 60.5608 96.713 61.8519C99.8423 63.1948 103.012 63.8921 105.787 64.7745C108.572 65.6301 110.989 66.7024 112.749 68.0202C114.536 69.3033 115.657 70.7278 116.272 71.7839C116.884 72.8496 117.071 73.517 117.113 73.5009Z" fill="#455A64"/>
<path d="M114.684 74.8151C114.684 74.8151 114.768 74.1315 114.36 72.9906C113.971 71.8586 112.983 70.321 111.223 69.0605C109.481 67.7588 106.993 66.9548 104.259 66.3303C101.513 65.7243 98.5331 64.9494 95.6033 63.5839C92.6783 62.2289 90.0531 60.5878 87.8868 58.8207C85.7085 57.0665 83.9511 55.2461 82.5969 53.6212C81.2249 52.006 80.3062 50.5524 79.6477 49.5667C79.3608 49.0916 79.1265 48.7054 78.9399 48.3975C78.7742 48.1325 78.6805 47.9959 78.6676 48.0032C78.6546 48.0097 78.7225 48.16 78.8647 48.4395C79.0328 48.7587 79.2453 49.1603 79.5055 49.6531C80.1236 50.6696 81.01 52.1587 82.3634 53.8127C83.699 55.4756 85.4515 57.3372 87.6396 59.1269C89.8155 60.9296 92.4658 62.6022 95.4263 63.9733C98.3852 65.3542 101.431 66.1331 104.17 66.7149C106.901 67.316 109.337 68.0763 111.05 69.3077C112.784 70.5036 113.779 71.9661 114.206 73.0504C114.65 74.1428 114.628 74.8248 114.684 74.8151Z" fill="#455A64"/>
<path d="M104.71 89.4762C104.701 89.4197 105.417 89.3275 106.653 89.0044C107.881 88.6618 109.621 87.9103 111.324 86.3937C113.047 84.8997 114.58 82.5735 115.663 79.7544C116.741 76.9328 117.389 73.6176 117.473 70.1246C117.508 68.3802 117.374 66.6785 117.07 65.0625C116.744 63.4514 116.262 61.9355 115.685 60.5393C114.492 57.7582 112.906 55.4966 111.361 53.8055C108.254 50.4078 105.665 49.0382 105.758 48.9219C105.768 48.9057 105.927 48.989 106.221 49.1619C106.509 49.3429 106.955 49.582 107.481 49.961C108.553 50.6882 110.046 51.8501 111.647 53.542C113.252 55.2251 114.905 57.5061 116.151 60.3389C116.754 61.761 117.258 63.3091 117.598 64.9583C117.917 66.6106 118.059 68.3567 118.022 70.1376C117.936 73.6919 117.262 77.0637 116.135 79.9378C115.003 82.8086 113.391 85.1817 111.58 86.6854C109.789 88.2125 107.972 88.9268 106.707 89.2112C106.079 89.3849 105.564 89.3898 105.229 89.4463C104.89 89.4843 104.711 89.4948 104.71 89.4762Z" fill="#455A64"/>
<path d="M52.6329 125.629L52.8421 125.364C62.038 115.633 78.964 112.374 78.964 112.374C78.964 112.374 79.999 118.745 89.4874 119.456C98.9757 120.168 105.946 110.503 105.946 110.503L118.604 112.276C118.604 112.276 124.976 113.027 128.944 115.361C137.878 120.617 142.621 138.744 142.621 138.744L45.0005 139.137L52.6329 125.629Z" fill="#455A64"/>
<path d="M43.7061 30.1126C43.7061 30.1126 43.4758 30.1352 43.0242 30.1627C42.7963 30.1764 42.5151 30.1934 42.1814 30.2127C41.8469 30.2435 41.4623 30.321 41.0235 30.3857C39.3017 30.7048 36.6515 31.3965 33.9406 33.5231C32.5969 34.5743 31.2492 35.9657 30.1463 37.7506C29.0449 39.529 28.1974 41.7066 27.8879 44.1556C27.7368 45.3781 27.7465 46.662 27.7554 47.9944C27.7578 49.3252 27.7594 50.7004 27.7618 52.1192C27.7659 54.9569 27.7699 57.97 27.7748 61.1503C27.7869 73.8714 27.8022 89.2622 27.8192 106.815C27.8224 111.204 27.8249 115.727 27.8289 120.378C27.8354 121.539 27.8055 122.717 27.8911 123.876C27.9647 125.04 28.2054 126.194 28.5254 127.331C29.2122 129.593 30.4501 131.71 32.0927 133.486C32.9015 134.389 33.859 135.153 34.8545 135.866C35.8911 136.516 36.9698 137.129 38.1414 137.539L39.0165 137.856L39.9206 138.088C40.5185 138.271 41.1439 138.327 41.7621 138.43C42.381 138.527 43.0145 138.511 43.6423 138.557C44.2798 138.557 44.9189 138.558 45.5597 138.559C50.688 138.557 55.9279 138.555 61.2712 138.553H61.4627V138.744C61.4651 146.625 61.4684 155.049 61.4708 163.685L61.1339 163.539C65.2611 159.646 69.4676 155.622 73.716 151.482C77.9483 147.33 82.2816 143.109 86.4113 138.604L86.4744 138.536H86.5657C99.8314 138.535 113.681 138.534 127.808 138.532C132.058 138.532 136.284 138.532 140.48 138.532C141.53 138.532 142.577 138.532 143.623 138.532C144.671 138.541 145.715 138.536 146.737 138.465C148.787 138.294 150.793 137.72 152.61 136.788C156.256 134.936 159.093 131.638 160.381 127.825C161.05 125.917 161.264 123.914 161.247 121.901C161.247 119.88 161.248 117.867 161.248 115.863C161.252 99.8325 161.256 84.3698 161.26 69.6391C161.264 62.2742 161.266 55.0919 161.269 48.114C161.276 46.3639 161.286 44.6477 160.952 42.9759C160.594 41.3139 159.986 39.7237 159.161 38.2685C158.349 36.8036 157.265 35.5148 156.05 34.4095C154.83 33.3082 153.466 32.3701 151.98 31.7221C150.502 31.0733 148.952 30.5812 147.365 30.4147C145.79 30.2346 144.189 30.2863 142.609 30.2782C139.448 30.2758 136.347 30.2742 133.307 30.2717C127.227 30.2669 121.391 30.2628 115.822 30.258C93.5468 30.2297 75.5211 30.2071 63.0561 30.1909C56.8313 30.174 51.9962 30.1602 48.7101 30.1513C47.0747 30.1425 45.8263 30.1352 44.9795 30.1303C44.1368 30.1271 43.7061 30.1126 43.7061 30.1126C43.7061 30.1126 44.1368 30.098 44.9771 30.0907C45.8239 30.0859 47.0722 30.0786 48.7076 30.0697C51.9938 30.0608 56.828 30.0471 63.0537 30.0301C75.5187 30.014 93.5443 29.9914 115.819 29.9631C121.389 29.959 127.224 29.9542 133.304 29.9493C136.345 29.9469 139.446 29.9453 142.606 29.9429C144.183 29.9493 145.782 29.8928 147.405 30.0754C149.026 30.2443 150.61 30.7436 152.122 31.4062C153.641 32.0679 155.038 33.0238 156.286 34.1485C157.529 35.2773 158.638 36.5935 159.471 38.0908C160.316 39.5775 160.94 41.204 161.306 42.9048C161.651 44.6145 161.641 46.3816 161.636 48.1156C161.639 55.0935 161.642 62.2758 161.645 69.6407C161.649 84.3714 161.653 99.8341 161.657 115.865C161.657 117.869 161.658 119.881 161.658 121.903C161.678 123.927 161.458 126.012 160.771 127.961C159.45 131.875 156.539 135.26 152.797 137.162C150.933 138.119 148.872 138.709 146.768 138.885C145.709 138.958 144.664 138.961 143.62 138.953C142.575 138.953 141.527 138.953 140.477 138.953C136.279 138.953 132.054 138.953 127.804 138.953C113.677 138.953 99.8282 138.951 86.5624 138.95L86.7159 138.881C82.5685 143.402 78.236 147.619 73.998 151.773C69.7455 155.913 65.5367 159.936 61.4045 163.828L61.0676 164.146V163.683C61.0708 155.047 61.0733 146.623 61.0757 138.743L61.2672 138.934C55.9239 138.932 50.684 138.929 45.5556 138.928C44.9141 138.926 44.2749 138.924 43.6366 138.924C42.9943 138.877 42.3471 138.891 41.7136 138.792C41.0817 138.687 40.4418 138.627 39.8301 138.44L38.905 138.202L38.0097 137.877C36.8114 137.456 35.7085 136.83 34.65 136.163C33.6328 135.433 32.6551 134.651 31.8293 133.726C30.1519 131.909 28.8898 129.744 28.1901 127.432C27.8645 126.27 27.6204 125.091 27.5461 123.901C27.4605 122.707 27.4928 121.542 27.4879 120.378C27.4912 115.727 27.4944 111.203 27.4968 106.815C27.5138 89.2622 27.5291 73.8714 27.5413 61.1503C27.5461 57.9708 27.5502 54.9577 27.5542 52.1192C27.5566 50.7004 27.5582 49.3252 27.5607 47.9944C27.5566 46.6677 27.5502 45.3716 27.7077 44.133C28.0293 41.6573 28.8947 39.4603 30.0145 37.6698C31.1352 35.8728 32.5024 34.4766 33.8622 33.4245C36.6062 31.2979 39.2783 30.6232 41.0098 30.3226C41.4518 30.2628 41.838 30.1901 42.1741 30.1643C42.5095 30.1505 42.7915 30.1384 43.0201 30.1295C43.4758 30.1134 43.7061 30.1126 43.7061 30.1126Z" fill="#263238"/>
<path d="M249.683 376.602L148.87 376.546C136.745 376.54 126.919 367.17 126.922 355.615L126.971 114.765C126.974 103.204 136.813 93.8353 148.944 93.8418L249.758 93.8984C261.883 93.9056 271.707 103.275 271.705 114.83L271.656 355.681C271.653 367.24 261.814 376.609 249.683 376.602Z" fill="#263238"/>
<path d="M249.651 102.415L230.104 102.404C227.483 102.403 225.357 104.519 225.357 107.13L225.356 110.509C225.356 113.12 223.23 115.236 220.609 115.235L182.509 115.213C179.888 115.212 177.764 113.093 177.764 110.482L177.765 107.103C177.765 104.492 175.64 102.374 173.019 102.372L166.145 102.368L149.037 102.358C140.541 102.354 133.65 108.915 133.649 117.011L133.6 352.098C133.598 360.191 140.479 366.753 148.971 366.758L249.583 366.814C258.078 366.818 264.97 360.257 264.971 352.16L265.02 117.073C265.022 108.982 258.142 102.42 249.651 102.415Z" fill="white"/>
<path d="M195.962 161.017C198.765 160.804 201.194 158.25 201.265 155.44C201.336 152.629 199.039 149.956 196.25 149.603C197.622 147.527 197.5 144.578 195.962 142.623C194.424 140.667 191.587 139.854 189.246 140.697C188.684 138.306 186.801 136.27 184.461 135.524C182.121 134.779 179.408 135.349 177.566 136.974C174.464 135.199 170.151 135.936 167.815 138.639C165.39 138.655 163.074 140.392 162.379 142.716C161.684 145.039 162.667 147.762 164.685 149.107" fill="#263238"/>
<path d="M196.931 161.651C193.565 149.419 181.369 141.825 168.906 144.198L167.667 144.434C154.463 147.756 149.907 160.826 153.593 173.934L162.835 221.527L190.038 242.523L197.08 224.995L194.308 209.155C194.308 209.155 206.765 204.715 204.48 191.85C203.376 185.638 200.062 173.028 196.931 161.651Z" fill="#C17560"/>
<path d="M194.411 209.116C194.411 209.116 186.308 211.169 176.657 207.396C176.657 207.396 182.219 216.162 194.806 212.568L194.411 209.116Z" fill="#7C4236"/>
<path d="M195.786 173.965C196.005 174.926 195.371 175.904 194.371 176.15C193.373 176.396 192.385 175.819 192.167 174.857C191.949 173.896 192.582 172.917 193.58 172.671C194.58 172.425 195.568 173.004 195.786 173.965Z" fill="#263238"/>
<path d="M195.368 168.456C195.186 168.738 193.603 167.974 191.631 168.356C189.656 168.708 188.402 169.998 188.143 169.797C188.017 169.71 188.166 169.234 188.709 168.655C189.243 168.08 190.216 167.435 191.446 167.206C192.676 166.98 193.796 167.234 194.478 167.584C195.173 167.934 195.459 168.327 195.368 168.456Z" fill="#263238"/>
<path d="M177.893 177.751C178.111 178.712 177.478 179.689 176.478 179.935C175.48 180.182 174.492 179.604 174.273 178.643C174.055 177.682 174.69 176.703 175.687 176.456C176.687 176.21 177.675 176.789 177.893 177.751Z" fill="#263238"/>
<path d="M176.051 172.513C175.869 172.795 174.283 172.033 172.313 172.414C170.34 172.766 169.085 174.056 168.824 173.855C168.699 173.769 168.846 173.294 169.392 172.714C169.925 172.139 170.898 171.493 172.128 171.265C173.357 171.038 174.477 171.293 175.159 171.643C175.852 171.992 176.142 172.386 176.051 172.513Z" fill="#263238"/>
<path d="M185.994 185.779C185.963 185.668 187.149 185.223 189.087 184.591C189.581 184.443 190.038 184.253 190.058 183.892C190.108 183.506 189.794 183.004 189.438 182.463C188.732 181.335 187.994 180.151 187.218 178.911C184.11 173.845 181.759 169.64 181.963 169.516C182.168 169.394 184.854 173.4 187.962 178.467C188.716 179.718 189.436 180.911 190.123 182.053C190.422 182.589 190.874 183.176 190.761 183.98C190.697 184.382 190.379 184.725 190.073 184.874C189.768 185.034 189.486 185.093 189.24 185.155C187.261 185.644 186.023 185.889 185.994 185.779Z" fill="#263238"/>
<path d="M175.371 165.686C175.206 166.235 173.413 166.015 171.319 166.344C169.218 166.626 167.539 167.352 167.25 166.868C167.121 166.636 167.405 166.116 168.078 165.574C168.746 165.031 169.818 164.507 171.076 164.323C172.333 164.141 173.494 164.34 174.266 164.673C175.044 165.005 175.442 165.425 175.371 165.686Z" fill="#263238"/>
<path d="M194.278 161.428C193.948 161.955 192.232 161.799 190.27 162.15C188.298 162.443 186.712 163.139 186.242 162.743C186.031 162.548 186.206 162.049 186.85 161.487C187.483 160.928 188.612 160.356 189.964 160.133C191.315 159.913 192.558 160.097 193.327 160.426C194.105 160.756 194.421 161.174 194.278 161.428Z" fill="#263238"/>
<path d="M158.033 186.033C157.575 184.067 155.571 182.828 153.633 183.391C151.283 184.074 148.878 185.941 149.978 190.857C151.928 199.579 160.282 195.821 160.241 195.567C160.213 195.395 158.883 189.674 158.033 186.033Z" fill="#C17560"/>
<path d="M157.609 192.711C157.565 192.692 157.481 192.852 157.251 193.027C157.026 193.198 156.613 193.373 156.12 193.304C155.123 193.173 154.02 191.883 153.627 190.32C153.427 189.532 153.424 188.739 153.565 188.05C153.689 187.352 154.002 186.814 154.447 186.629C154.885 186.418 155.275 186.622 155.437 186.844C155.608 187.062 155.592 187.248 155.641 187.253C155.67 187.269 155.795 187.065 155.645 186.721C155.57 186.556 155.422 186.372 155.18 186.251C154.932 186.128 154.605 186.11 154.29 186.217C153.627 186.414 153.161 187.168 153.005 187.924C152.813 188.691 152.798 189.587 153.022 190.472C153.472 192.217 154.738 193.661 156.081 193.743C156.731 193.766 157.201 193.467 157.419 193.202C157.641 192.926 157.643 192.721 157.609 192.711Z" fill="#7C4236"/>
<path d="M186.163 144.785C186.042 144.581 185.897 144.388 185.737 144.218C184.52 142.921 182.654 142.351 180.896 142.56C179.742 142.223 178.62 141.99 177.574 141.854C175.95 140.009 173.459 138.917 170.999 139.122C168.208 139.354 165.646 141.234 164.497 143.778C164.147 143.898 163.799 144.027 163.45 144.159C161.396 143.194 158.925 143.133 156.842 144.044C154.507 145.065 152.729 147.274 152.229 149.774C149.987 149.619 147.711 150.908 146.692 152.909C145.672 154.911 145.967 157.51 147.409 159.232C146.003 160.433 144.951 162.258 145.265 164.08C145.56 165.794 147.444 167.174 149.051 166.659C149.541 170.922 150.937 175.789 151.988 180.112C152.729 183.157 156.989 184.237 157.654 186.272C161.048 196.659 163.408 190.111 160.55 167.817C160.739 167.604 160.927 167.379 161.117 167.13C161.498 166.627 161.507 166.079 161.819 165.53C162.191 164.876 163.108 164.884 163.858 164.822C166.461 164.607 168.73 162.305 168.907 159.7C169.744 160.55 171.254 160.219 172.118 159.397C172.981 158.575 173.418 157.415 174.021 156.386C174.623 155.357 175.554 154.362 176.746 154.306C177.412 154.275 178.093 154.545 178.734 154.364C179.867 154.042 180.173 152.585 180.13 151.409C180.093 150.417 180.011 149.3 180.496 148.489C181.138 148.028 181.821 147.641 182.605 147.428C183.051 147.394 183.51 147.399 183.947 147.38C184.15 147.372 184.361 147.341 184.571 147.299C184.845 147.335 185.129 147.388 185.429 147.468C189.662 148.606 194.578 155.999 194.578 155.999C193.878 150.855 190.302 147.138 186.163 144.785Z" fill="#263238"/>
<path d="M146.36 159.911C146.353 159.908 146.373 159.86 146.417 159.768C146.465 159.679 146.524 159.538 146.631 159.371C146.846 159.039 147.209 158.568 147.812 158.114C148.412 157.672 149.249 157.225 150.303 157.061C151.343 156.88 152.624 156.984 153.792 157.659L153.569 157.778C153.636 155.983 154.653 154.04 156.362 152.697C157.21 152.021 158.216 151.472 159.326 151.137C160.438 150.803 161.632 150.679 162.838 150.723C165.192 150.82 167.366 151.544 169.241 152.368L168.998 152.495C169.419 150.351 170.708 148.627 172.167 147.592C173.639 146.536 175.267 146.195 176.566 146.191C177.881 146.188 178.894 146.507 179.543 146.778C179.87 146.916 180.113 147.042 180.269 147.139C180.427 147.234 180.506 147.288 180.501 147.296C180.487 147.321 180.157 147.128 179.501 146.886C178.848 146.654 177.847 146.376 176.568 146.41C175.304 146.444 173.742 146.801 172.341 147.834C170.949 148.846 169.73 150.516 169.342 152.56L169.3 152.775L169.099 152.688C167.245 151.885 165.109 151.186 162.823 151.092C161.653 151.048 160.496 151.169 159.431 151.485C158.366 151.803 157.396 152.327 156.578 152.971C154.928 154.254 153.95 156.093 153.863 157.794L153.85 158.038L153.639 157.913C152.555 157.267 151.339 157.144 150.338 157.297C149.323 157.433 148.505 157.843 147.909 158.251C146.711 159.108 146.411 159.954 146.36 159.911Z" fill="#455A64"/>
<path d="M180.474 147.905C180.486 147.909 180.45 148.035 180.389 148.274C180.339 148.516 180.277 148.877 180.25 149.351C180.22 149.825 180.219 150.409 180.196 151.095C180.154 151.774 180.164 152.593 179.747 153.418C179.531 153.823 179.127 154.174 178.639 154.31C178.155 154.461 177.639 154.461 177.129 154.497C176.623 154.533 176.092 154.603 175.659 154.889C175.224 155.177 174.879 155.635 174.569 156.122C174.26 156.612 173.985 157.156 173.685 157.701C173.394 158.234 173.141 158.863 172.637 159.351C172.146 159.834 171.514 160.172 170.836 160.362C170.495 160.457 170.136 160.517 169.761 160.496C169.392 160.481 168.984 160.343 168.701 160.036L169.013 159.923C168.984 160.454 168.9 160.994 168.709 161.514C168.512 162.028 168.232 162.519 167.877 162.958C167.152 163.825 166.154 164.479 165.048 164.836C164.594 164.998 164.121 165.083 163.653 165.154C163.162 165.202 162.736 165.183 162.378 165.398C162.006 165.598 161.762 165.91 161.578 166.323C161.372 166.732 161.131 167.116 160.871 167.482C159.836 168.929 158.415 170.123 156.756 170.456C155.098 170.733 153.516 170.237 152.303 169.474C151.083 168.695 150.215 167.607 149.749 166.499L149.915 166.564C148.838 167.015 147.719 166.846 146.931 166.424C146.124 165.997 145.66 165.318 145.426 164.746C145.187 164.166 145.158 163.672 145.17 163.349C145.178 163.187 145.192 163.064 145.211 162.983C145.227 162.903 145.238 162.861 145.244 162.862C145.3 162.852 145.069 163.569 145.553 164.692C145.797 165.234 146.255 165.864 147.022 166.247C147.771 166.629 148.828 166.763 149.814 166.333L149.929 166.283L149.98 166.4C150.443 167.454 151.288 168.486 152.463 169.22C153.625 169.94 155.157 170.394 156.69 170.125C158.219 169.813 159.585 168.673 160.576 167.274C160.825 166.922 161.056 166.55 161.253 166.157C161.426 165.752 161.758 165.302 162.203 165.076C162.424 164.956 162.668 164.88 162.918 164.848L163.607 164.789C164.052 164.721 164.501 164.641 164.932 164.488C165.98 164.15 166.918 163.532 167.595 162.727C167.925 162.318 168.185 161.866 168.37 161.39C168.547 160.91 168.627 160.409 168.656 159.915L168.682 159.491L168.968 159.802C169.379 160.248 170.137 160.197 170.744 160.029C171.375 159.855 171.956 159.547 172.402 159.113C172.851 158.688 173.097 158.101 173.401 157.549C173.706 157.005 173.984 156.464 174.31 155.958C174.636 155.457 175 154.973 175.501 154.646C176.012 154.32 176.596 154.259 177.112 154.228C177.633 154.2 178.13 154.202 178.566 154.072C179.006 153.955 179.348 153.664 179.55 153.308C179.943 152.572 179.964 151.758 180.019 151.088C180.059 150.408 180.079 149.819 180.128 149.342C180.175 148.864 180.258 148.5 180.328 148.259C180.41 148.019 180.465 147.902 180.474 147.905Z" fill="#455A64"/>
<path d="M180.501 190.394C180.137 192.792 181.18 195.141 183.459 195.971C184.25 196.259 185.179 196.2 185.933 195.827C186.855 195.372 187.658 194.707 187.876 193.633C188.08 192.624 188.215 191.59 187.93 190.602C185.84 190.481 182.592 190.515 180.501 190.394Z" fill="#7C4236"/>
<path d="M187.462 194.611C187.474 194.62 187.444 194.677 187.373 194.781C187.308 194.889 187.194 195.035 187.022 195.202C186.687 195.54 186.078 195.95 185.214 196.097C184.362 196.23 183.271 196.125 182.275 195.503C181.296 194.879 180.514 193.749 180.299 192.425C180.247 192.095 180.23 191.763 180.249 191.437C180.28 191.118 180.3 190.779 180.503 190.457C180.602 190.299 180.771 190.16 180.952 190.103C181.132 190.043 181.301 190.04 181.451 190.039C181.742 190.048 182.028 190.056 182.307 190.065C183.419 190.119 184.411 190.231 185.241 190.314C186.901 190.495 187.93 190.543 187.93 190.603C187.932 190.66 186.889 190.715 185.217 190.61C184.381 190.564 183.39 190.484 182.292 190.452C182.017 190.448 181.737 190.445 181.452 190.441C181.166 190.441 180.963 190.487 180.848 190.68C180.722 190.872 180.689 191.169 180.665 191.462C180.65 191.756 180.666 192.057 180.713 192.356C180.909 193.559 181.614 194.599 182.486 195.177C183.366 195.754 184.381 195.89 185.17 195.802C185.972 195.702 186.561 195.364 186.912 195.078C187.276 194.798 187.428 194.582 187.462 194.611Z" fill="#263238"/>
<path d="M236.257 166.726C236.257 166.726 246.493 165.454 261.883 153.213C277.273 140.974 285.601 123.578 287.321 123.829C289.04 124.079 296.912 121.288 308.316 153.843C319.72 186.397 313.387 193.11 310.538 192.783C307.689 192.455 288.817 185.228 276.582 185.463C264.346 185.699 248.192 190.541 248.192 190.541L236.257 166.726Z" fill="#FF725E"/>
<path d="M217.84 191.036L223.31 189.868L220.351 182.674L215.726 184.978L217.84 191.036Z" fill="#455A64"/>
<path d="M218.483 182.475L220.504 188.552L221.762 191.611C223.488 195.805 228.194 197.915 232.473 196.413L254.672 190.172L245.135 162.064L223.083 171.364C218.754 173.171 216.699 178.136 218.483 182.475Z" fill="#263238"/>
<path d="M226.439 191.815L233.874 205L237.272 203.902L260.478 221.228L266.24 208.686C266.24 208.686 252.737 203.524 250.087 198.895C247.436 194.267 250.227 193.076 250.227 193.076L243.689 186.241L226.439 191.815Z" fill="#263238"/>
<path d="M307.102 154.304C313.144 171.926 314.902 187.288 311.03 188.615C307.158 189.943 299.122 176.733 293.08 159.111C287.04 141.489 285.281 126.128 289.153 124.801C293.025 123.473 301.061 136.683 307.102 154.304Z" fill="#263238"/>
<path d="M291.893 149.076C291.893 149.076 301.118 144.493 304.776 156.717C308.435 168.941 299.082 170.014 299.082 170.014C295.878 163.841 293.458 156.885 291.893 149.076Z" fill="#FAFAFA"/>
<path d="M283.945 134.171C283.893 134.175 283.941 134.986 284.074 136.453C284.214 137.918 284.407 140.043 284.724 142.66C284.974 143.957 285.247 145.375 285.539 146.894C285.687 147.656 285.842 148.443 286 149.252C286.08 149.658 286.161 150.069 286.243 150.486C286.335 150.901 286.467 151.311 286.581 151.732C287.056 153.411 287.555 155.172 288.071 156.998C288.201 157.454 288.332 157.915 288.465 158.379C288.591 158.845 288.791 159.291 288.953 159.753C289.296 160.672 289.644 161.603 289.997 162.546C290.35 163.489 290.7 164.42 291.045 165.339C291.225 165.794 291.369 166.261 291.578 166.697C291.783 167.134 291.987 167.568 292.189 167.997C292.998 169.713 293.78 171.37 294.524 172.948C294.715 173.34 294.885 173.737 295.088 174.11C295.3 174.48 295.51 174.843 295.716 175.202C296.129 175.919 296.531 176.614 296.919 177.287C297.697 178.626 298.423 179.875 299.088 181.02C300.564 183.196 301.812 184.921 302.668 186.116C303.53 187.308 304.027 187.953 304.069 187.924C304.112 187.895 303.697 187.194 302.909 185.952C302.091 184.685 300.941 182.907 299.529 180.722C298.893 179.572 298.199 178.318 297.456 176.971C297.082 176.298 296.695 175.603 296.297 174.887C296.097 174.529 295.894 174.166 295.689 173.798C295.493 173.426 295.329 173.028 295.143 172.637C294.415 171.063 293.653 169.412 292.863 167.7C292.665 167.272 292.464 166.842 292.262 166.407C292.056 165.975 291.916 165.509 291.736 165.057C291.395 164.144 291.049 163.219 290.7 162.283C290.349 161.347 290.001 160.422 289.66 159.511C289.497 159.052 289.298 158.61 289.17 158.148C289.037 157.687 288.904 157.23 288.773 156.778C288.246 154.97 287.737 153.224 287.251 151.559C287.134 151.142 286.997 150.736 286.9 150.325C286.814 149.912 286.728 149.505 286.643 149.104C286.474 148.301 286.309 147.521 286.149 146.767C285.826 145.262 285.524 143.858 285.248 142.573C284.879 140.003 284.579 137.911 284.365 136.421C284.143 134.969 283.996 134.167 283.945 134.171Z" fill="#263238"/>
<path d="M254.672 190.173C254.679 190.201 254.323 190.313 253.674 190.489C252.942 190.681 252.019 190.923 250.921 191.211C248.595 191.812 245.387 192.661 241.853 193.635C238.319 194.611 235.119 195.503 232.783 196.081C231.616 196.372 230.667 196.59 230.008 196.727C229.349 196.863 228.982 196.924 228.975 196.896C228.968 196.867 229.322 196.752 229.969 196.568C230.697 196.362 231.614 196.102 232.706 195.793C235.103 195.112 238.255 194.218 241.741 193.229C245.279 192.253 248.503 191.448 250.85 190.92C252.023 190.656 252.975 190.453 253.636 190.328C254.298 190.202 254.666 190.145 254.672 190.173Z" fill="#455A64"/>
<path d="M241.626 185.585C241.645 185.637 240.82 185.998 239.457 186.508C238.095 187.018 236.193 187.669 234.067 188.305C231.939 188.939 229.991 189.437 228.573 189.758C227.155 190.079 226.267 190.229 226.254 190.175C226.24 190.117 227.103 189.864 228.5 189.47C229.897 189.077 231.826 188.535 233.947 187.902C236.067 187.269 237.977 186.664 239.361 186.227C240.744 185.79 241.605 185.528 241.626 185.585Z" fill="#455A64"/>
<path d="M238.1 179.165C238.134 179.277 235.068 180.301 231.253 181.454C227.437 182.608 224.318 183.452 224.284 183.341C224.251 183.229 227.316 182.205 231.132 181.051C234.946 179.898 238.067 179.054 238.1 179.165Z" fill="#455A64"/>
<path d="M234.659 172.98C234.706 173.087 232.094 174.332 228.828 175.762C225.561 177.192 222.875 178.265 222.828 178.158C222.781 178.052 225.392 176.807 228.66 175.376C231.926 173.947 234.612 172.874 234.659 172.98Z" fill="#455A64"/>
<path d="M209.687 242.522L196.204 219.784L161.358 218.345L161.394 221.514C161.394 221.514 151.822 231.14 148.738 244.256C146.404 254.184 156.226 292.08 158.989 305.215C162.388 321.366 167.101 341.807 167.101 341.807C166.401 345.426 161.754 348.356 162.075 353.189L239.531 352.34L235.551 336.642L209.687 242.522Z" fill="#FF725E"/>
<path d="M236.555 342.658C236.555 342.775 221.142 342.868 202.133 342.868C183.118 342.868 167.708 342.774 167.708 342.658C167.708 342.543 183.118 342.448 202.133 342.448C221.142 342.447 236.555 342.542 236.555 342.658Z" fill="white"/>
<path d="M231.203 323.227C231.203 323.343 215.929 323.437 197.093 323.437C178.25 323.437 162.98 323.342 162.98 323.227C162.98 323.111 178.25 323.017 197.093 323.017C215.929 323.017 231.203 323.11 231.203 323.227Z" fill="white"/>
<path d="M225.946 302.1C225.946 302.216 210.999 302.31 192.565 302.31C174.124 302.31 159.18 302.215 159.18 302.1C159.18 301.984 174.124 301.89 192.565 301.89C210.999 301.889 225.946 301.983 225.946 302.1Z" fill="white"/>
<path d="M222.272 280.84C222.272 280.956 206.875 281.05 187.887 281.05C168.893 281.05 153.5 280.956 153.5 280.84C153.5 280.724 168.893 280.63 187.887 280.63C206.876 280.63 222.272 280.724 222.272 280.84Z" fill="white"/>
<path d="M214.137 254.466C214.137 254.582 199.569 254.676 181.601 254.676C163.628 254.676 149.062 254.581 149.062 254.466C149.062 254.35 163.628 254.256 181.601 254.256C199.569 254.256 214.137 254.35 214.137 254.466Z" fill="white"/>
<path d="M203.045 230.309C203.045 230.425 192.284 230.519 179.013 230.519C165.738 230.519 154.979 230.424 154.979 230.309C154.979 230.193 165.738 230.099 179.013 230.099C192.284 230.098 203.045 230.192 203.045 230.309Z" fill="white"/>
<path opacity="0.3" d="M158.615 256.544C158.615 256.544 163.545 265.243 171.328 271.7C179.11 278.158 202.788 289.749 202.788 289.749L204.76 285.66L222.425 289.784L219.153 278.914L158.615 256.544Z" fill="black"/>
<path d="M241.709 227.858L235.551 261.339L182.736 236.233L174.227 266.013C194.982 276.163 237.003 293.061 242.411 292.572C250.101 291.877 255.414 287.285 257.809 276.019C259.29 269.047 258.59 222.285 258.59 222.285L241.709 227.858Z" fill="#C17560"/>
<path d="M186.191 231.732C186.191 231.732 166.438 219.53 157.823 234.906C151.666 249.901 158.48 261.878 173.685 269.315C181.017 272.901 191.002 277.328 201.09 281.534L215.786 248.921L186.191 231.732Z" fill="#FF725E"/>
<path d="M186.191 231.733C186.191 231.733 186.38 231.823 186.735 232.019C187.102 232.226 187.625 232.52 188.302 232.901C189.686 233.693 191.696 234.843 194.265 236.312C199.429 239.291 206.836 243.565 215.87 248.776L216 248.852L215.938 248.989C211.751 258.308 206.74 269.462 201.278 281.618L201.196 281.801L201.011 281.724C195.84 279.571 190.507 277.283 185.083 274.854C182.68 273.778 180.31 272.695 177.98 271.602C175.65 270.509 173.358 269.415 171.148 268.214C170.059 267.589 168.99 266.944 167.958 266.265C166.955 265.54 165.92 264.875 165.007 264.066C163.088 262.565 161.456 260.79 160.006 258.952C159.67 258.471 159.335 257.993 159.002 257.517C158.647 257.056 158.418 256.518 158.124 256.026C157.517 255.046 157.138 253.968 156.69 252.939C156.497 252.413 156.365 251.869 156.201 251.339L155.968 250.544C155.902 250.277 155.868 250.004 155.817 249.735C155.725 249.196 155.632 248.66 155.54 248.128C155.492 247.591 155.473 247.054 155.439 246.523C155.325 245.46 155.468 244.412 155.5 243.381C155.582 242.352 155.801 241.354 155.94 240.364C156.196 239.398 156.433 238.443 156.7 237.515C157.029 236.608 157.354 235.717 157.672 234.842L157.674 234.834L157.68 234.824C158.904 232.659 160.509 230.832 162.353 229.534C164.208 228.244 166.271 227.541 168.225 227.221C172.179 226.659 175.616 227.414 178.273 228.2C180.946 229.02 182.922 229.948 184.235 230.614C184.891 230.951 185.381 231.228 185.708 231.42C186.033 231.617 186.191 231.733 186.191 231.733C186.191 231.733 186.017 231.645 185.685 231.465C185.352 231.287 184.855 231.026 184.194 230.702C182.87 230.066 180.888 229.167 178.223 228.378C175.573 227.621 172.155 226.903 168.267 227.481C166.347 227.807 164.331 228.508 162.523 229.778C160.725 231.056 159.161 232.851 157.965 234.985L157.973 234.967C157.661 235.835 157.344 236.719 157.021 237.618C156.76 238.537 156.529 239.481 156.28 240.437C156.146 241.415 155.931 242.4 155.855 243.414C155.826 244.43 155.687 245.463 155.804 246.508C155.839 247.03 155.859 247.557 155.907 248.086C155.999 248.608 156.091 249.134 156.184 249.664C156.235 249.929 156.268 250.197 156.333 250.46L156.565 251.24C156.727 251.76 156.858 252.294 157.049 252.81C157.492 253.819 157.864 254.878 158.464 255.839C158.756 256.322 158.981 256.85 159.331 257.304C159.66 257.771 159.99 258.241 160.322 258.714C161.754 260.522 163.365 262.27 165.265 263.753C166.167 264.551 167.193 265.208 168.186 265.925C169.209 266.596 170.27 267.234 171.35 267.853C173.538 269.04 175.831 270.134 178.159 271.224C180.487 272.314 182.855 273.395 185.255 274.471C190.675 276.897 196.004 279.187 201.169 281.345L200.901 281.45C206.39 269.306 211.426 258.163 215.633 248.853L215.702 249.066C206.698 243.802 199.315 239.485 194.168 236.475C191.618 234.972 189.623 233.796 188.25 232.986C187.584 232.587 187.07 232.28 186.708 232.062C186.362 231.852 186.191 231.733 186.191 231.733Z" fill="#263238"/>
<path d="M240.92 233.588L242.111 221.113C242.111 221.113 237.345 211.513 237.437 210.552C237.529 209.59 237.809 204.302 237.809 204.302L249.727 193.574C249.727 193.574 253.587 193.574 253.685 197.394C253.685 197.394 257.4 196.611 257.449 201.06C257.449 201.06 261.469 201.208 261.574 204.46C261.574 204.46 263.997 204.14 263.913 207.538C263.853 209.981 262.786 219.347 262.786 219.347L257.802 228.016L257.391 236.686L240.92 233.588Z" fill="#C17560"/>
<path d="M242.155 273.575C242.018 273.621 241.14 270.592 239.334 267.194C237.531 263.79 235.442 261.426 235.551 261.338C235.59 261.304 236.156 261.854 236.961 262.842C237.765 263.829 238.787 265.276 239.705 266.996C240.62 268.717 241.257 270.366 241.649 271.577C242.04 272.789 242.205 273.559 242.155 273.575Z" fill="#7C4236"/>
<path d="M174.227 227.591C174.253 227.605 174.064 228.008 173.702 228.725C173.341 229.442 172.799 230.47 172.116 231.734C170.753 234.261 168.809 237.719 166.629 241.517C164.463 245.282 162.504 248.686 161.036 251.237C160.347 252.429 159.775 253.419 159.335 254.179C158.928 254.872 158.691 255.248 158.666 255.234C158.641 255.221 158.829 254.818 159.191 254.101C159.552 253.383 160.093 252.356 160.776 251.092C162.139 248.564 164.083 245.106 166.264 241.307C168.429 237.544 170.388 234.14 171.856 231.588C172.545 230.397 173.118 229.407 173.558 228.646C173.964 227.954 174.201 227.577 174.227 227.591Z" fill="white"/>
<path d="M190.33 234.645C190.343 234.651 190.298 234.776 190.201 235.009C190.08 235.286 189.934 235.618 189.758 236.019C189.366 236.893 188.777 238.148 188.034 239.691C186.547 242.776 184.415 247.002 181.929 251.6C179.441 256.198 177.07 260.296 175.302 263.229C174.418 264.695 173.69 265.875 173.174 266.681C172.935 267.048 172.736 267.353 172.571 267.605C172.429 267.813 172.349 267.92 172.337 267.912C172.324 267.904 172.38 267.783 172.499 267.56C172.645 267.297 172.821 266.979 173.034 266.596C173.542 265.707 174.222 264.518 175.047 263.077C176.748 260.107 179.074 255.991 181.561 251.399C184.044 246.806 186.214 242.607 187.769 239.557C188.524 238.078 189.146 236.86 189.612 235.947C189.817 235.56 189.987 235.238 190.127 234.972C190.247 234.751 190.317 234.638 190.33 234.645Z" fill="white"/>
<path d="M208.346 244.728C208.373 244.739 208.198 245.214 207.861 246.063C207.525 246.914 207.009 248.133 206.343 249.627C205.014 252.615 203.042 256.686 200.613 261.048C198.179 265.409 195.752 269.227 193.909 271.928C192.988 273.28 192.223 274.36 191.676 275.092C191.131 275.827 190.818 276.224 190.795 276.207C190.771 276.19 191.038 275.761 191.541 274.999C192.08 274.177 192.795 273.085 193.661 271.764C195.438 269.025 197.817 265.193 200.245 260.843C202.668 256.493 204.677 252.454 206.073 249.503C206.742 248.071 207.294 246.889 207.71 246C208.095 245.17 208.32 244.716 208.346 244.728Z" fill="white"/>
<path d="M161.395 368.139L163.078 353.181L236.968 352.371L238.853 368.139H161.395Z" fill="#263238"/>
<path d="M252.902 366.817C252.902 366.933 230.139 367.027 202.065 367.027C173.983 367.027 151.224 366.932 151.224 366.817C151.224 366.7 173.982 366.606 202.065 366.606C230.139 366.606 252.902 366.701 252.902 366.817Z" fill="#455A64"/>
<path d="M211.729 110.345H184.24C183.332 110.345 182.595 109.609 182.595 108.7V107.505C182.595 106.596 183.331 105.86 184.24 105.86H211.729C212.637 105.86 213.373 106.596 213.373 107.505V108.7C213.374 109.608 212.638 110.345 211.729 110.345Z" fill="#455A64"/>
<path d="M220.832 108.102C220.832 109.34 219.829 110.344 218.59 110.344C217.351 110.344 216.348 109.339 216.348 108.102C216.348 106.863 217.352 105.859 218.59 105.859C219.828 105.859 220.832 106.863 220.832 108.102Z" fill="#455A64"/>
<path d="M129.548 178.159H127.726C124.96 178.159 122.717 175.916 122.717 173.15V145.675C122.717 142.908 124.96 140.665 127.726 140.665H129.548V178.159Z" fill="#263238"/>
<path d="M129.096 232.638H127.275C124.508 232.638 122.265 230.395 122.265 227.628V200.153C122.265 197.387 124.508 195.144 127.275 195.144H129.096V232.638Z" fill="#263238"/>
<path d="M127.403 250.708C127.287 250.708 127.193 223.493 127.193 189.93C127.193 156.355 127.287 129.146 127.403 129.146C127.518 129.146 127.613 156.355 127.613 189.93C127.614 223.493 127.519 250.708 127.403 250.708Z" fill="#455A64"/>
<path d="M102.151 294.362H24.2727C19.1815 294.362 15.0542 290.235 15.0542 285.144V225.379C15.0542 220.287 19.1815 216.16 24.2727 216.16H102.151C107.242 216.16 111.369 220.287 111.369 225.379V285.144C111.369 290.236 107.242 294.362 102.151 294.362Z" fill="white"/>
<path d="M67.0811 291.97C68.0692 294.364 87.1736 312.318 87.1736 312.318V291.97H67.0811Z" fill="#FF725E"/>
<path d="M80.5021 233.525C79.5737 230.473 77.363 227.835 74.5213 226.386C71.3992 224.794 67.6791 224.658 64.2637 225.444C60.8483 226.229 57.6915 227.876 54.7099 229.716C53.0366 230.749 51.3713 231.879 50.1924 233.453C48.0407 236.325 45.9658 241 45.8526 244.587C45.7613 247.488 47.0768 254.705 48.376 257.3C48.8382 258.223 49.9217 259.04 51.2242 259.728C52.6261 262.286 54.4603 264.606 56.6669 266.516C57.2826 264.552 57.8983 262.589 58.514 260.625L80.5021 233.525Z" fill="#263238"/>
<path d="M78.7306 230.003L72.9946 229.146C76.326 236.485 77.6568 253.451 79.6655 261.257C81.6814 258.145 86.3016 248.709 85.9348 245.019C85.5687 241.329 85.4936 229.179 78.7306 230.003Z" fill="#263238"/>
<path d="M52.0282 243.141C52.2116 238.791 54.9192 235.151 59.1046 233.955L72.1506 230.227C77.8123 229.451 81.8046 236.33 82.3395 242.02C82.9334 248.342 83.3786 255.017 82.7734 259.766C81.5565 269.315 74.3104 270.748 74.3104 270.748C74.3088 270.735 74.4381 275.27 74.5124 278.045L72.3865 290.484L55.1842 275.798L51.9975 243.255C51.9894 243.095 52.0193 243.357 52.0282 243.141Z" fill="#FFBF9D"/>
<path d="M79.4695 249.928C79.5123 250.571 79.0033 251.137 78.3319 251.194C77.6628 251.251 77.0843 250.777 77.0415 250.134C76.9995 249.491 77.5085 248.924 78.1775 248.868C78.849 248.811 79.4267 249.286 79.4695 249.928Z" fill="#263238"/>
<path d="M81.0195 245.785C80.8732 245.949 79.9287 245.294 78.6181 245.337C77.3075 245.363 76.3662 246.067 76.2183 245.91C76.1464 245.842 76.2918 245.55 76.7015 245.232C77.1047 244.915 77.7996 244.598 78.6165 244.576C79.4333 244.555 80.1298 244.835 80.5338 245.131C80.9467 245.428 81.0922 245.712 81.0195 245.785Z" fill="#263238"/>
<path d="M67.6566 249.929C67.6995 250.572 67.1896 251.138 66.519 251.194C65.8499 251.251 65.2714 250.777 65.2286 250.134C65.1858 249.491 65.6956 248.924 66.3646 248.868C67.0361 248.811 67.6146 249.286 67.6566 249.929Z" fill="#263238"/>
<path d="M68.5648 246.139C68.4178 246.303 67.4724 245.648 66.1618 245.692C64.8512 245.717 63.9099 246.421 63.7629 246.265C63.691 246.196 63.8348 245.904 64.246 245.586C64.6492 245.269 65.3433 244.952 66.1602 244.931C66.9771 244.911 67.6736 245.19 68.0784 245.485C68.4897 245.783 68.6359 246.066 68.5648 246.139Z" fill="#263238"/>
<path d="M72.9583 256.324C72.9503 256.25 73.7607 256.084 75.0769 255.874C75.4106 255.829 75.7257 255.753 75.775 255.522C75.8469 255.278 75.6958 254.921 75.5213 254.537C75.1811 253.736 74.8256 252.896 74.4523 252.017C72.9656 248.429 71.878 245.474 72.0227 245.416C72.1673 245.357 73.4908 248.218 74.9775 251.806C75.3363 252.691 75.6789 253.535 76.0053 254.342C76.1435 254.718 76.3754 255.143 76.2194 255.651C76.137 255.904 75.897 256.093 75.6837 256.157C75.4712 256.229 75.283 256.239 75.1173 256.254C73.7898 256.368 72.9656 256.398 72.9583 256.324Z" fill="#263238"/>
<path d="M61.6089 267.728C61.6089 267.728 64.8877 274.167 74.3712 272.985L74.3098 270.749C74.3098 270.749 68.06 271.339 61.6089 267.728Z" fill="#FF9A6C"/>
<path d="M68.0174 241.412C67.8995 241.773 66.5841 241.644 65.0521 241.877C63.5145 242.079 62.2879 242.568 62.0738 242.254C61.9776 242.104 62.1837 241.762 62.6749 241.401C63.1614 241.041 63.9451 240.689 64.8654 240.557C65.7857 240.428 66.6366 240.548 67.2038 240.759C67.7742 240.97 68.0675 241.242 68.0174 241.412Z" fill="#263238"/>
<path d="M80.4773 241.786C80.2559 242.09 79.3428 241.809 78.2561 241.827C77.1685 241.808 76.2555 242.089 76.0349 241.785C75.9371 241.636 76.0729 241.334 76.4664 241.039C76.8542 240.746 77.5095 240.496 78.2561 240.495C79.0035 240.496 79.658 240.746 80.0458 241.04C80.4393 241.335 80.575 241.637 80.4773 241.786Z" fill="#263238"/>
<path d="M79.5103 233.416C78.8881 232.002 77.2947 231.188 75.7506 231.154C74.2066 231.12 72.7174 231.746 71.4036 232.557C65.8373 235.991 63.1539 243.975 57.6579 247.52C56.3061 248.392 54.4946 247.68 53.3561 248.816C52.2177 249.952 51.509 251.736 52.1983 253.189C51.4177 252.18 50.6259 251.152 50.1645 249.963C49.7032 248.773 49.6094 247.377 50.2154 246.254C50.6752 245.401 51.5115 244.737 51.7199 243.791C51.9025 242.959 51.5519 242.104 51.5632 241.252C51.5745 240.385 51.9599 239.57 52.3647 238.803C54.4445 234.867 57.3581 231.277 61.1768 228.987C63.6719 227.49 66.5467 226.576 69.4555 226.592C72.3643 226.608 75.2974 227.593 77.4806 229.515C78.7645 230.645 80.1138 231.814 79.5103 233.416Z" fill="#263238"/>
<path d="M53.5261 249.99C53.4187 249.72 48.4099 248.073 48.4947 253.343C48.5771 258.464 53.7136 257.309 53.7201 257.162C53.7257 257.015 53.5261 249.99 53.5261 249.99Z" fill="#FFBF9D"/>
<path d="M52.1022 255.253C52.0796 255.238 52.0141 255.318 51.8646 255.39C51.7192 255.46 51.4671 255.511 51.198 255.417C50.6535 255.228 50.1816 254.378 50.1388 253.456C50.1169 252.99 50.2058 252.544 50.3642 252.174C50.5137 251.797 50.7504 251.53 51.0219 251.477C51.2918 251.409 51.4881 251.568 51.5528 251.711C51.6239 251.853 51.594 251.956 51.6206 251.964C51.6352 251.977 51.7289 251.876 51.6837 251.666C51.6602 251.564 51.598 251.444 51.476 251.349C51.3516 251.251 51.1698 251.204 50.9807 251.228C50.5864 251.263 50.2381 251.633 50.0636 252.04C49.8681 252.449 49.7574 252.95 49.7816 253.473C49.8341 254.504 50.3812 255.46 51.1253 255.66C51.4873 255.747 51.7855 255.632 51.939 255.509C52.0957 255.377 52.1208 255.262 52.1022 255.253Z" fill="#FF9A6C"/>
<path d="M51.4147 247.416C51.4187 247.423 51.5238 247.361 51.7185 247.235C51.9108 247.105 52.2081 246.931 52.5612 246.665C53.2618 246.128 54.2306 245.279 55.2527 244.07C56.2813 242.868 57.3502 241.315 58.5073 239.584C59.6668 237.856 60.9394 235.944 62.582 234.202C63.4191 233.351 64.3031 232.583 65.246 231.971C66.1865 231.353 67.1771 230.891 68.1524 230.55C70.1053 229.86 71.9944 229.667 73.5563 229.729C75.1246 229.783 76.3722 230.08 77.2093 230.338C77.6335 230.453 77.9486 230.586 78.1676 230.662C78.3857 230.74 78.5021 230.778 78.5053 230.771C78.5085 230.763 78.3986 230.711 78.1853 230.618C77.9712 230.527 77.6601 230.38 77.2367 230.25C76.4029 229.964 75.1489 229.639 73.5636 229.564C71.9847 229.479 70.0682 229.656 68.0821 230.346C67.0899 230.686 66.0807 231.152 65.1224 231.777C64.1601 232.397 63.2616 233.177 62.4132 234.039C60.7503 235.801 59.4785 237.728 58.3287 239.462C57.1814 241.201 56.1326 242.755 55.1266 243.962C54.1279 245.176 53.185 246.035 52.5055 246.591C52.1629 246.865 51.8752 247.051 51.6926 247.193C51.5068 247.333 51.4106 247.409 51.4147 247.416Z" fill="white"/>
<path d="M52.7432 248.829C52.7028 250.23 52.681 251.708 53.3622 252.932C54.0433 254.156 55.6965 254.954 56.8931 254.224C57.8684 253.63 58.1294 252.351 58.2651 251.216C58.6578 247.942 58.7855 244.64 59.2064 241.369L52.7432 248.829Z" fill="#263238"/>
<path d="M78.1804 231.015C78.1756 231.045 77.7255 230.943 76.9046 230.94C76.0885 230.942 74.8862 231.084 73.5344 231.656C72.8614 231.941 72.1463 232.314 71.4433 232.809C70.7388 233.304 70.0229 233.893 69.3013 234.543C67.8687 235.854 66.3917 237.424 65.1466 239.286C64.5228 240.218 63.9734 241.173 63.3738 242.06C62.7808 242.95 62.115 243.757 61.3878 244.426C59.9366 245.761 58.4297 246.711 57.145 247.443C55.8554 248.173 54.7743 248.689 54.0285 249.045C53.6762 249.208 53.3894 249.339 53.164 249.443C52.9644 249.531 52.8577 249.572 52.8537 249.563C52.8488 249.554 52.9474 249.495 53.1381 249.39C53.3579 249.274 53.6358 249.126 53.9784 248.944C54.708 248.557 55.773 248.014 57.0432 247.266C58.3085 246.515 59.7887 245.556 61.2076 244.23C61.9138 243.571 62.5578 242.782 63.1411 241.901C63.7294 241.023 64.2772 240.067 64.9082 239.125C66.1719 237.235 67.6692 235.657 69.1244 234.344C69.8589 233.692 70.5844 233.106 71.3084 232.61C72.0316 232.113 72.766 231.743 73.4577 231.465C74.8466 230.906 76.078 230.792 76.9062 230.826C77.3223 230.841 77.6431 230.887 77.8572 230.931C78.0714 230.978 78.1821 231.006 78.1804 231.015Z" fill="#455A64"/>
<path d="M52.5122 245.67C52.5211 245.684 52.3636 245.797 52.0686 245.988C51.7236 246.204 51.2994 246.47 50.7936 246.786C50.6554 246.871 50.5124 246.958 50.3638 247.049C50.2038 247.143 50.026 247.227 49.8087 247.25C49.702 247.259 49.5743 247.253 49.4596 247.178C49.3457 247.106 49.2705 246.98 49.2584 246.846C49.2406 246.578 49.3788 246.376 49.4814 246.192C49.9218 245.44 50.405 244.615 50.9172 243.739L51.1257 243.922C50.6562 244.291 50.1052 244.591 49.504 244.789C48.9005 244.989 48.2775 245.075 47.678 245.057C47.5309 245.056 47.3653 245.041 47.2109 244.991C47.0598 244.943 46.8829 244.846 46.8037 244.656C46.7221 244.471 46.7884 244.263 46.8748 244.137C46.9605 244.003 47.0679 243.903 47.1576 243.808C47.8977 243.05 48.4456 242.258 48.8382 241.559C49.6204 240.151 49.8256 239.152 49.8798 239.17C49.8959 239.174 49.8604 239.424 49.7384 239.863C49.6123 240.301 49.3966 240.93 49.0176 241.656C48.6411 242.38 48.0981 243.204 47.3491 243.991C47.1633 244.177 46.9799 244.391 47.0582 244.55C47.1237 244.709 47.417 244.78 47.686 244.774C48.2524 244.788 48.8423 244.704 49.4144 244.515C49.984 244.327 50.506 244.046 50.952 243.699L51.5507 243.234L51.1604 243.882C50.6369 244.751 50.1432 245.57 49.6931 246.316C49.58 246.496 49.479 246.675 49.4895 246.822C49.5 246.967 49.6269 247.049 49.7909 247.031C50.1222 247.005 50.4163 246.77 50.6999 246.626C51.2219 246.338 51.6606 246.096 52.0169 245.9C52.3296 245.738 52.5033 245.654 52.5122 245.67Z" fill="white"/>
<path d="M68.0389 258.884C68.1908 258.099 68.9721 257.477 69.7704 257.534C70.3562 257.576 70.8943 257.956 71.1739 258.473C71.4535 258.989 71.4826 259.623 71.3008 260.182L71.2765 260.306C70.7562 260.915 69.8326 261.149 69.0965 260.835C68.3605 260.522 67.8878 259.669 68.0389 258.884Z" fill="#FF9A6C"/>
<path d="M72.2281 260.307C72.2241 260.107 70.8997 260.209 69.8712 259.149C68.8393 258.091 68.8773 256.667 68.6915 256.672C68.6066 256.66 68.4588 257.007 68.4895 257.604C68.5153 258.19 68.7699 259.028 69.3993 259.677C70.0303 260.324 70.823 260.56 71.3692 260.563C71.9267 260.57 72.2434 260.397 72.2281 260.307Z" fill="#263238"/>
<path d="M93.3903 284.921L93.24 284.73C86.6201 277.725 74.4354 275.379 74.4354 275.379C74.4354 275.379 73.6905 279.965 66.8596 280.478C60.0296 280.99 55.0119 274.032 55.0119 274.032L45.8993 275.308C45.8993 275.308 41.3123 275.849 38.4568 277.528C32.0251 281.312 28.6113 294.362 28.6113 294.362L98.8855 294.645L93.3903 284.921Z" fill="#FF725E"/>
<path d="M99.8168 216.161C99.8168 216.161 99.9825 216.158 100.309 216.17C100.636 216.173 101.123 216.193 101.758 216.305C103.006 216.518 104.932 217.002 106.912 218.533C107.893 219.29 108.879 220.295 109.689 221.591C110.498 222.882 111.123 224.466 111.357 226.252C111.471 227.146 111.467 228.081 111.465 229.035C111.467 229.992 111.469 230.983 111.471 232.004C111.475 234.048 111.48 236.216 111.484 238.505C111.496 247.664 111.512 258.743 111.529 271.378C111.532 274.537 111.535 277.794 111.538 281.142C111.534 281.98 111.558 282.817 111.496 283.681C111.443 284.541 111.267 285.394 111.032 286.234C110.527 287.906 109.615 289.472 108.402 290.785C107.195 292.106 105.655 293.153 103.934 293.786L103.286 294.021L102.617 294.194C102.175 294.329 101.712 294.373 101.255 294.449C100.33 294.559 99.4007 294.552 98.4836 294.547C94.7919 294.55 91.0201 294.551 87.1733 294.554L87.3648 294.362C87.3672 300.035 87.3704 306.099 87.3728 312.317V312.78L87.0359 312.462C84.0608 309.659 81.0308 306.764 77.9685 303.784C74.9167 300.793 71.7978 297.758 68.8098 294.501L68.9634 294.57C59.4136 294.571 49.4437 294.572 39.2742 294.573C36.2143 294.573 33.173 294.573 30.1511 294.573H27.8887C27.1381 294.579 26.385 294.577 25.6174 294.523C24.0951 294.396 22.6044 293.969 21.255 293.276C18.5474 291.9 16.4426 289.451 15.4867 286.619C14.9898 285.21 14.8306 283.698 14.8451 282.239C14.8451 280.784 14.8459 279.335 14.8459 277.893C14.85 266.353 14.854 255.221 14.8581 244.618C14.8613 239.316 14.8637 234.146 14.867 229.123C14.8637 227.877 14.8565 226.598 15.1061 225.362C15.372 224.132 15.8228 222.956 16.4345 221.882C17.0364 220.799 17.8388 219.848 18.7381 219.032C19.6398 218.219 20.6498 217.528 21.7487 217.05C22.8411 216.571 23.9877 216.211 25.1593 216.089C26.3341 215.957 27.4847 215.999 28.6199 215.994C30.8944 215.996 33.1278 215.998 35.3158 216C39.6928 216.005 43.8935 216.01 47.9028 216.014C63.9352 216.042 76.91 216.065 85.8877 216.081C90.3657 216.098 93.8449 216.112 96.2148 216.121C97.3888 216.129 98.2865 216.137 98.9006 216.142C99.5074 216.146 99.8168 216.161 99.8168 216.161C99.8168 216.161 99.5066 216.175 98.9022 216.183C98.2881 216.188 97.3904 216.195 96.2164 216.204C93.8465 216.213 90.3673 216.226 85.8893 216.243C76.9117 216.259 63.9368 216.282 47.9045 216.31C43.8952 216.314 39.6944 216.319 35.3174 216.324C33.1286 216.327 30.8961 216.328 28.6215 216.331C27.4831 216.336 26.3309 216.3 25.2029 216.429C24.066 216.549 22.955 216.902 21.8957 217.367C20.8308 217.832 19.8523 218.505 18.9789 219.294C18.1078 220.087 17.3305 221.011 16.7496 222.061C16.1581 223.104 15.7234 224.243 15.4673 225.435C15.2281 226.633 15.2354 227.862 15.2411 229.124C15.2435 234.147 15.2467 239.317 15.2499 244.619C15.254 255.223 15.258 266.354 15.2621 277.894C15.2621 279.336 15.2629 280.785 15.2629 282.24C15.2508 283.688 15.4043 285.118 15.8842 286.485C16.8062 289.215 18.8383 291.578 21.4497 292.904C22.7506 293.571 24.188 293.983 25.6562 294.105C26.3866 294.156 27.1372 294.159 27.8919 294.153H30.1543C33.1762 294.153 36.2175 294.153 39.2774 294.153C49.4469 294.154 59.4168 294.156 68.9666 294.156H69.0579L69.1209 294.225C72.0911 297.465 75.2108 300.504 78.257 303.493C81.3153 306.472 84.3428 309.369 87.313 312.172L86.9761 312.318C86.9793 306.101 86.9818 300.037 86.985 294.363V294.172H87.1765C91.0226 294.174 94.7951 294.177 98.4869 294.178C99.4145 294.185 100.326 294.19 101.214 294.086C101.657 294.013 102.105 293.972 102.533 293.841L103.181 293.676L103.808 293.449C105.477 292.837 106.972 291.825 108.144 290.545C109.322 289.272 110.209 287.755 110.702 286.134C110.932 285.319 111.105 284.492 111.157 283.657C111.219 282.828 111.198 281.978 111.202 281.143C111.206 277.794 111.209 274.538 111.211 271.379C111.228 258.744 111.244 247.665 111.256 238.506C111.261 236.217 111.265 234.048 111.269 232.005C111.271 230.984 111.273 229.994 111.275 229.036C111.282 228.076 111.29 227.153 111.182 226.275C110.962 224.516 110.354 222.951 109.564 221.672C108.773 220.388 107.805 219.388 106.84 218.631C104.893 217.1 102.988 216.6 101.75 216.368C101.121 216.247 100.636 216.217 100.311 216.203C99.9825 216.18 99.8168 216.161 99.8168 216.161Z" fill="#263238"/>
<path d="M284.913 314.186H376.691C381.805 314.186 385.951 310.04 385.951 304.926V233.891C385.951 228.777 381.805 224.631 376.691 224.631H284.913C279.8 224.631 275.654 228.777 275.654 233.891V304.925C275.653 310.04 279.799 314.186 284.913 314.186Z" fill="white"/>
<path d="M326.37 311.444C325.239 314.186 303.361 334.747 303.361 334.747V311.444H326.37Z" fill="#455A64"/>
<path d="M317.905 292.698C317.909 289.869 317.906 287.511 317.888 287.22C317.888 287.22 308.323 286.316 307.637 276.848C307.305 272.273 307.389 262.794 307.565 254.219C307.754 245.011 314.994 237.495 324.188 236.943L325.102 236.888C334.995 236.872 340.534 245.263 340.276 255.153L339.93 292.27L323.926 305.119L322.767 305.016L317.905 292.698Z" fill="#FFBF9D"/>
<path d="M317.887 287.21C317.887 287.21 323.88 287.201 330.004 282.821C330.004 282.821 327.411 289.923 317.905 289.637L317.887 287.21Z" fill="#FF9A6C"/>
<path d="M323.684 258.291C323.869 258.485 324.972 257.619 326.558 257.597C328.141 257.551 329.315 258.368 329.485 258.166C329.568 258.077 329.377 257.724 328.865 257.355C328.361 256.987 327.505 256.635 326.518 256.656C325.531 256.679 324.706 257.064 324.234 257.454C323.752 257.846 323.592 258.204 323.684 258.291Z" fill="#263238"/>
<path d="M324.852 262.621C324.869 263.298 325.456 263.842 326.164 263.837C326.87 263.833 327.43 263.282 327.414 262.604C327.397 261.927 326.81 261.382 326.103 261.387C325.395 261.391 324.835 261.943 324.852 262.621Z" fill="#263238"/>
<path d="M319.57 269.262C319.573 269.179 318.658 269.077 317.18 268.978C316.806 268.962 316.45 268.909 316.372 268.66C316.268 268.396 316.4 267.986 316.554 267.543C316.85 266.623 317.158 265.657 317.483 264.646C318.768 260.523 319.674 257.142 319.508 257.092C319.342 257.042 318.165 260.343 316.88 264.465C316.573 265.481 316.278 266.45 315.998 267.377C315.883 267.807 315.67 268.302 315.893 268.847C316.01 269.119 316.295 269.304 316.537 269.354C316.78 269.412 316.989 269.404 317.174 269.404C318.654 269.393 319.57 269.346 319.57 269.262Z" fill="#263238"/>
<path d="M324.474 253.217C324.623 253.571 325.895 253.322 327.412 253.42C328.932 253.486 330.175 253.869 330.355 253.533C330.435 253.372 330.202 253.046 329.691 252.726C329.182 252.406 328.386 252.122 327.475 252.072C326.565 252.024 325.745 252.222 325.21 252.485C324.671 252.749 324.409 253.049 324.474 253.217Z" fill="#263238"/>
<path d="M309.609 254.119C309.771 254.407 311.011 254.105 312.51 254.078C314.01 254.024 315.25 254.259 315.412 253.962C315.484 253.82 315.24 253.56 314.721 253.326C314.206 253.092 313.409 252.908 312.509 252.932C311.611 252.957 310.813 253.184 310.299 253.446C309.78 253.708 309.537 253.981 309.609 254.119Z" fill="#263238"/>
<path d="M339.925 262.208C340.082 262.129 346.319 259.892 346.501 266.381C346.683 272.871 340.13 271.716 340.114 271.529C340.097 271.344 339.925 262.208 339.925 262.208Z" fill="#FFBF9D"/>
<path d="M342.026 269.016C342.054 268.994 342.141 269.091 342.335 269.174C342.524 269.254 342.845 269.304 343.181 269.167C343.859 268.897 344.405 267.792 344.405 266.621C344.405 266.031 344.265 265.472 344.043 265.012C343.831 264.542 343.515 264.22 343.168 264.168C342.822 264.099 342.583 264.312 342.509 264.496C342.427 264.681 342.472 264.808 342.438 264.821C342.42 264.838 342.296 264.716 342.34 264.447C342.364 264.318 342.435 264.162 342.584 264.033C342.737 263.903 342.964 263.831 343.205 263.851C343.707 263.871 344.17 264.319 344.414 264.824C344.687 265.33 344.857 265.958 344.857 266.621C344.852 267.93 344.217 269.173 343.286 269.47C342.833 269.602 342.448 269.475 342.248 269.327C342.043 269.172 342.004 269.028 342.026 269.016Z" fill="#FF9A6C"/>
<path d="M321.585 274.787C321.516 274.622 322.792 274.258 323.701 273.077C324.155 272.496 324.42 271.859 324.62 271.395C324.816 270.926 324.963 270.633 325.032 270.656C325.098 270.677 325.077 270.996 324.967 271.506C324.851 272.011 324.622 272.733 324.107 273.393C323.6 274.06 322.926 274.453 322.434 274.64C321.937 274.834 321.601 274.843 321.585 274.787Z" fill="#263238"/>
<path d="M348.685 251.82C347.363 249.514 347.083 246.781 346.377 244.219C345.672 241.657 344.284 238.993 341.792 238.069L341.735 238.093C339.499 237.161 336.729 237.112 334.863 238.648C334.449 235.271 331.529 232.563 328.249 231.658C324.97 230.752 319.685 231.199 316.513 232.428C314.06 233.379 311.675 235.36 308.77 238.279C307.546 239.509 306.416 240.835 305.409 242.247L302.434 251.046L304.826 255.711C304.968 256.029 305.116 256.345 305.295 256.66L305.298 256.639L307.381 266.432C307.555 263.771 307.482 254.505 307.655 251.844C311.766 251.72 315.506 250.109 318.302 247.092C319.777 245.5 320.946 243.496 322.904 242.559C325.428 241.35 328.406 242.293 331.037 243.244L330.927 243.142C332.294 243.795 333.533 244.715 334.556 245.833C333.894 251.067 334.371 256.444 335.953 261.478C336.191 262.236 336.848 263.801 337.585 264.096C339.035 264.678 339.446 263.2 340.333 262.423C340.986 261.851 341.944 261.789 342.991 261.805C343.627 260.195 344.296 257.477 344.858 255.097C345.734 255.375 346.67 255.46 347.579 255.314C347.308 254.642 347.038 253.97 346.767 253.298C347.128 253.533 347.501 253.773 347.926 253.84C348.35 253.908 348.842 253.756 349.037 253.373C349.289 252.88 348.961 252.302 348.685 251.82Z" fill="#263238"/>
<path d="M331.872 239.692C331.853 239.717 332.266 239.948 332.81 240.572C333.35 241.194 333.95 242.272 334.222 243.732C334.362 244.458 334.444 245.269 334.433 246.139C334.426 247.011 334.343 247.943 334.264 248.925C334.187 249.908 334.104 250.945 334.153 252.026C334.177 252.566 334.236 253.116 334.346 253.666C334.458 254.206 334.592 254.793 334.993 255.262C335.312 255.644 335.852 255.818 336.322 255.728C336.795 255.65 337.22 255.404 337.531 255.065C338.15 254.362 338.313 253.464 338.474 252.671L338.276 252.693C338.591 253.411 338.915 254.12 339.401 254.69C339.879 255.263 340.546 255.646 341.229 255.716C341.569 255.751 341.912 255.7 342.207 255.557C342.506 255.416 342.726 255.172 342.878 254.913C343.023 254.649 343.101 254.359 343.09 254.077C343.078 253.796 342.971 253.529 342.796 253.338L342.694 253.426C343.413 254.266 344.177 254.723 344.707 254.976C344.974 255.104 345.188 255.181 345.333 255.229C345.479 255.275 345.556 255.294 345.558 255.288C345.56 255.282 345.487 255.251 345.346 255.195C345.206 255.135 344.997 255.048 344.739 254.912C344.226 254.64 343.486 254.173 342.797 253.339L342.695 253.428C343.009 253.769 343.02 254.362 342.74 254.834C342.599 255.067 342.397 255.284 342.133 255.404C341.87 255.528 341.558 255.572 341.247 255.536C340.621 255.466 339.999 255.107 339.551 254.562C339.093 254.018 338.779 253.327 338.468 252.608L338.335 252.303L338.268 252.629C338.107 253.42 337.934 254.283 337.371 254.917C337.091 255.221 336.702 255.444 336.288 255.51C335.873 255.584 335.437 255.442 335.158 255.115C334.808 254.709 334.67 254.153 334.561 253.621C334.454 253.085 334.396 252.547 334.37 252.016C334.319 250.953 334.397 249.922 334.468 248.94C334.541 247.958 334.617 247.022 334.616 246.139C334.62 245.257 334.527 244.435 334.375 243.7C334.08 242.221 333.445 241.129 332.875 240.515C332.3 239.898 331.872 239.692 331.872 239.692Z" fill="#455A64"/>
<path d="M302.488 248.519C302.486 248.523 302.512 248.544 302.564 248.585C302.627 248.632 302.703 248.69 302.798 248.76C302.901 248.838 303.031 248.931 303.195 249.022C303.358 249.118 303.542 249.234 303.767 249.332C304.64 249.761 306.044 250.194 307.807 250.113C309.553 250.037 311.655 249.446 313.543 248.078C315.451 246.743 317.136 244.763 318.522 242.488C319.225 241.351 319.801 240.184 320.433 239.107C321.06 238.03 321.752 237.035 322.583 236.254C323.405 235.468 324.356 234.892 325.331 234.635C325.816 234.496 326.305 234.471 326.77 234.488C327.237 234.518 327.678 234.618 328.083 234.757C328.895 235.041 329.548 235.501 330.04 235.97C330.535 236.445 330.865 236.942 331.09 237.369C331.509 238.244 331.526 238.802 331.56 238.793C331.564 238.793 331.562 238.759 331.554 238.694C331.543 238.616 331.529 238.52 331.513 238.404C331.47 238.15 331.366 237.782 331.168 237.331C330.951 236.891 330.625 236.375 330.127 235.881C329.631 235.393 328.969 234.913 328.136 234.61C327.72 234.462 327.265 234.353 326.782 234.317C326.3 234.294 325.788 234.318 325.285 234.457C324.272 234.716 323.289 235.305 322.444 236.105C321.588 236.901 320.881 237.913 320.246 238.996C319.606 240.081 319.03 241.245 318.333 242.37C316.957 244.628 315.297 246.587 313.426 247.91C311.572 249.266 309.519 249.859 307.799 249.955C306.065 250.055 304.677 249.652 303.803 249.253C302.922 248.848 302.506 248.493 302.488 248.519Z" fill="#455A64"/>
<path d="M309.231 258.712C309.416 258.906 310.519 258.04 312.105 258.018C313.687 257.972 314.863 258.789 315.032 258.587C315.115 258.498 314.924 258.145 314.412 257.776C313.908 257.408 313.052 257.056 312.065 257.077C311.078 257.099 310.253 257.485 309.782 257.875C309.299 258.266 309.139 258.625 309.231 258.712Z" fill="#263238"/>
<path d="M311.654 262.821C311.671 263.498 312.257 264.042 312.965 264.038C313.671 264.033 314.232 263.482 314.215 262.805C314.198 262.127 313.611 261.582 312.904 261.587C312.197 261.591 311.637 262.144 311.654 262.821Z" fill="#263238"/>
<path d="M306.218 241.167C305.412 242.23 304.173 243.198 302.847 243.056C302.455 243.014 301.436 242.642 301.436 242.642C300.973 242.922 301.081 244.508 301.401 244.946C301.72 245.383 302.394 245.975 302.394 245.975C300.839 246.81 299.423 246.398 297.765 245.79C298.056 248.614 299.977 251.21 302.592 252.313C303.427 252.666 304.442 252.857 305.204 252.365C305.875 251.931 306.15 251.101 306.353 250.329C307.098 247.492 307.491 244.564 307.519 241.631L306.218 241.167Z" fill="#263238"/>
<path d="M296.242 303.373L296.415 303.155C303.996 295.133 317.95 292.447 317.95 292.447C317.95 292.447 318.803 297.699 326.625 298.285C334.448 298.872 340.193 290.904 340.193 290.904L350.629 292.366C350.629 292.366 355.881 292.985 359.152 294.909C366.518 299.241 370.427 314.186 370.427 314.186L289.95 314.51L296.242 303.373Z" fill="#455A64"/>
<path d="M288.882 224.631C288.882 224.631 288.692 224.651 288.32 224.675C288.132 224.686 287.9 224.701 287.625 224.718C287.349 224.744 287.033 224.808 286.671 224.862C285.252 225.127 283.069 225.698 280.837 227.451C279.731 228.318 278.621 229.464 277.713 230.935C276.807 232.401 276.11 234.194 275.856 236.211C275.732 237.217 275.741 238.275 275.748 239.373C275.751 240.471 275.752 241.604 275.755 242.773C275.759 245.113 275.763 247.597 275.768 250.218C275.78 260.706 275.795 273.394 275.812 287.864C275.815 291.482 275.818 295.211 275.822 299.046C275.827 300.003 275.802 300.975 275.873 301.927C275.934 302.885 276.133 303.834 276.395 304.769C276.961 306.629 277.979 308.37 279.33 309.83C280.675 311.3 282.39 312.461 284.305 313.163L285.025 313.424L285.769 313.615C286.261 313.765 286.775 313.811 287.283 313.896C288.303 314.016 289.348 314.009 290.409 314.003C294.637 314 298.956 313.998 303.362 313.996H303.553V314.188C303.556 320.684 303.559 327.629 303.561 334.749L303.224 334.603C306.627 331.394 310.094 328.076 313.596 324.664C317.085 321.241 320.657 317.761 324.06 314.049L324.123 313.981H324.214C335.15 313.98 346.568 313.978 358.213 313.978C361.718 313.978 365.201 313.978 368.661 313.978C369.526 313.978 370.389 313.978 371.252 313.978C372.117 313.984 372.976 313.981 373.815 313.923C375.5 313.782 377.15 313.31 378.643 312.544C381.64 311.022 383.973 308.31 385.031 305.176C385.582 303.608 385.758 301.963 385.744 300.305C385.744 298.639 385.744 296.979 385.744 295.327C385.749 282.112 385.753 269.365 385.757 257.221C385.76 251.15 385.762 245.229 385.765 239.476C385.771 238.031 385.779 236.621 385.505 235.246C385.211 233.879 384.712 232.572 384.033 231.375C383.366 230.17 382.474 229.11 381.474 228.201C380.471 227.295 379.349 226.524 378.127 225.99C376.911 225.456 375.637 225.052 374.332 224.915C373.038 224.766 371.718 224.809 370.414 224.803C367.809 224.8 365.252 224.799 362.746 224.796C357.734 224.791 352.924 224.787 348.332 224.782C329.97 224.754 315.111 224.732 304.832 224.715C299.702 224.698 295.717 224.685 293.005 224.676C291.659 224.667 290.631 224.66 289.93 224.655C289.237 224.645 288.882 224.631 288.882 224.631C288.882 224.631 289.237 224.616 289.93 224.609C290.631 224.604 291.659 224.597 293.005 224.588C295.717 224.579 299.702 224.565 304.832 224.548C315.111 224.532 329.97 224.509 348.332 224.481C352.924 224.477 357.734 224.472 362.746 224.467C365.253 224.465 367.809 224.463 370.414 224.461C371.714 224.467 373.032 224.419 374.374 224.57C375.714 224.709 377.023 225.122 378.272 225.669C379.528 226.215 380.682 227.005 381.713 227.934C382.74 228.867 383.657 229.954 384.345 231.192C385.044 232.42 385.559 233.764 385.862 235.169C386.148 236.582 386.14 238.043 386.136 239.472C386.139 245.225 386.141 251.145 386.144 257.217C386.148 269.361 386.152 282.108 386.157 295.323C386.157 296.975 386.157 298.634 386.157 300.301C386.174 301.97 385.992 303.697 385.424 305.307C384.331 308.543 381.926 311.34 378.833 312.913C377.291 313.704 375.588 314.192 373.849 314.336C372.972 314.398 372.111 314.399 371.251 314.394C370.388 314.394 369.525 314.394 368.659 314.394C365.199 314.394 361.715 314.394 358.212 314.394C346.565 314.393 335.148 314.391 324.213 314.39L324.366 314.322C320.946 318.05 317.374 321.526 313.879 324.951C310.373 328.363 306.904 331.679 303.497 334.889L303.16 335.207V334.744C303.163 327.625 303.165 320.68 303.168 314.183L303.359 314.374C298.954 314.372 294.635 314.369 290.407 314.368C289.356 314.373 288.292 314.381 287.236 314.256C286.714 314.169 286.185 314.12 285.679 313.965L284.915 313.768L284.176 313.5C282.208 312.776 280.448 311.58 279.069 310.069C277.683 308.568 276.64 306.778 276.062 304.868C275.793 303.908 275.592 302.934 275.531 301.95C275.461 300.963 275.487 300.003 275.483 299.044C275.486 295.21 275.49 291.48 275.493 287.862C275.51 273.393 275.525 260.705 275.537 250.217C275.541 247.596 275.546 245.112 275.55 242.772C275.553 241.602 275.554 240.468 275.557 239.372C275.553 238.278 275.549 237.209 275.679 236.187C275.945 234.143 276.66 232.331 277.586 230.854C278.512 229.371 279.64 228.22 280.762 227.353C283.027 225.599 285.231 225.044 286.66 224.799C287.025 224.75 287.343 224.69 287.62 224.669C287.896 224.659 288.128 224.649 288.317 224.642C288.692 224.63 288.882 224.631 288.882 224.631Z" fill="#263238"/>
</svg>
