<!-- icon.svg -->
<svg xmlns="http://www.w3.org/2000/svg" width="24" height="24" viewBox="0 0 24 24" fill="none">
  <g clip-path="url(#clip0)">
    <path d="M12.0469 0C5.45578 0 0 5.36203 0 11.9531C0 18.5442 5.45578 24 12.0469 24C18.638 24 24 18.5442 24 11.9531C24 5.36203 18.638 0 12.0469 0ZM18.375 13.3594H13.4531V18.375C13.4531 19.1503 12.8217 19.7812 12.0469 19.7812C11.2716 19.7812 10.6406 19.1503 10.6406 18.375V13.3594H5.625C4.84969 13.3594 4.21875 12.7284 4.21875 11.9531C4.21875 11.1778 4.84969 10.5469 5.625 10.5469H10.6406V5.625C10.6406 4.84969 11.2716 4.21875 12.0469 4.21875C12.8217 4.21875 13.4531 4.84969 13.4531 5.625V10.5469H18.375C19.1498 10.5469 19.7812 11.1778 19.7812 11.9531C19.7812 12.7284 19.1498 13.3594 18.375 13.3594Z" fill="white"/>
  </g>
  <defs>
    <clipPath id="clip0">
      <rect width="24" height="24" fill="white"/>
    </clipPath>
  </defs>
</svg>